<svg width="105" height="105" viewBox="0 0 105 105" fill="none" xmlns="http://www.w3.org/2000/svg">
<g clip-path="url(#clip0)">
<path d="M91.8401 0H14.8401C10.9742 0 7.84009 3.13414 7.84009 7V56C7.84009 59.8659 10.9742 63 14.8401 63H42.3484L39.7235 73.5H35.8401V77H70.8401V73.5H66.9567L64.3317 63H91.8401C95.706 63 98.8401 59.8659 98.8401 56V7C98.8401 3.13414 95.706 0 91.8401 0ZM11.3401 7C11.3401 5.0668 12.9069 3.5 14.8401 3.5H91.8401C93.7733 3.5 95.3401 5.0668 95.3401 7V49H11.3401V7ZM63.3485 73.5H43.3317L45.9567 63H60.7235L63.3485 73.5ZM95.3401 56C95.3401 57.9332 93.7733 59.5 91.8401 59.5H14.8401C12.9069 59.5 11.3401 57.9332 11.3401 56V52.5H95.3401V56Z" fill="black"/>
<path d="M13.0903 80.4999C12.1235 80.4999 11.3403 81.283 11.3403 82.2499V103.25C11.3403 104.217 12.1235 105 13.0903 105H69.0903C70.0572 105 70.8403 104.217 70.8403 103.25V82.2499C70.8403 81.283 70.0572 80.4999 69.0903 80.4999H13.0903ZM67.3403 101.5H14.8403V83.9999H67.3403V101.5Z" fill="black"/>
<path d="M18.3403 94.5H21.8403V98H18.3403V94.5Z" fill="black"/>
<path d="M60.3398 94.5H63.8398V98H60.3398V94.5Z" fill="black"/>
<path d="M18.3403 87.4999H21.8403V90.9999H18.3403V87.4999Z" fill="black"/>
<path d="M25.3403 87.4999H28.8403V90.9999H25.3403V87.4999Z" fill="black"/>
<path d="M32.3406 87.4999H35.8406V90.9999H32.3406V87.4999Z" fill="black"/>
<path d="M39.3403 87.4999H42.8403V90.9999H39.3403V87.4999Z" fill="black"/>
<path d="M53.3403 87.4999H56.8403V90.9999H53.3403V87.4999Z" fill="black"/>
<path d="M46.3408 87.4999H49.8408V90.9999H46.3408V87.4999Z" fill="black"/>
<path d="M60.3398 87.4999H63.8398V90.9999H60.3398V87.4999Z" fill="black"/>
<path d="M32.3406 94.5H49.8406V98H32.3406V94.5Z" fill="black"/>
<path d="M25.3403 94.5H28.8403V98H25.3403V94.5Z" fill="black"/>
<path d="M53.3403 94.5H56.8403V98H53.3403V94.5Z" fill="black"/>
<path d="M81.3403 87.4999H84.8403V92.7499H81.3403V87.4999Z" fill="black"/>
<path d="M6.09033 89.2501H7.84033V85.75H6.09033C5.12346 85.75 4.34033 84.9669 4.34033 84V71.75C4.34033 70.7832 5.12346 70 6.09033 70H37.5903V66.5H6.09033C3.19135 66.5 0.840332 68.851 0.840332 71.75V84C0.840332 86.899 3.19135 89.2501 6.09033 89.2501Z" fill="black"/>
<path d="M86.5903 77H98.8403C101.739 77 104.09 74.649 104.09 71.75C104.09 68.851 101.739 66.5 98.8403 66.5H69.0903V70H98.8403C99.8072 70 100.59 70.7831 100.59 71.75C100.59 72.7169 99.8072 73.5 98.8403 73.5H86.5903C83.6913 73.5 81.3403 75.851 81.3403 78.75V80.675C77.2688 81.5123 74.3458 85.0938 74.3403 89.25V96.25C74.3403 101.082 78.2581 105 83.0903 105C87.9225 105 91.8403 101.082 91.8403 96.25V89.25C91.8349 85.0938 88.9118 81.5123 84.8403 80.675V78.75C84.8403 77.7832 85.6234 77 86.5903 77ZM88.3403 89.25V96.25C88.3403 99.149 85.9893 101.5 83.0903 101.5C80.1913 101.5 77.8403 99.149 77.8403 96.25V89.25C77.8403 86.351 80.1913 84 83.0903 84C85.9893 84 88.3403 86.351 88.3403 89.25Z" fill="black"/>
<path d="M88.3404 6.99979H81.3403C80.3735 6.99979 79.5903 7.78291 79.5903 8.74979V15.7498C79.5903 16.7167 80.3735 17.4998 81.3403 17.4998H88.3404C89.3072 17.4998 90.0904 16.7167 90.0904 15.7498V8.74979C90.0904 7.78291 89.3072 6.99979 88.3404 6.99979ZM86.5903 13.9998H83.0903V10.4998H86.5903V13.9998Z" fill="#BE111F"/>
<path d="M74.3403 6.99979H67.3403C66.3735 6.99979 65.5903 7.78291 65.5903 8.74979V15.7498C65.5903 16.7167 66.3735 17.4998 67.3403 17.4998H74.3403C75.3072 17.4998 76.0903 16.7167 76.0903 15.7498V8.74979C76.0903 7.78291 75.3072 6.99979 74.3403 6.99979ZM72.5903 13.9998H69.0903V10.4998H72.5903V13.9998Z" fill="#BE111F"/>
<path d="M88.3404 20.9999H81.3403C80.3735 20.9999 79.5903 21.783 79.5903 22.7499V29.7499C79.5903 30.7167 80.3735 31.4999 81.3403 31.4999H88.3404C89.3072 31.4999 90.0904 30.7167 90.0904 29.7499V22.7499C90.0904 21.783 89.3072 20.9999 88.3404 20.9999ZM86.5903 27.9999H83.0903V24.4999H86.5903V27.9999Z" fill="#BE111F"/>
<path d="M74.3403 20.9999H67.3403C66.3735 20.9999 65.5903 21.783 65.5903 22.7499V29.7499C65.5903 30.7167 66.3735 31.4999 67.3403 31.4999H74.3403C75.3072 31.4999 76.0903 30.7167 76.0903 29.7499V22.7499C76.0903 21.783 75.3072 20.9999 74.3403 20.9999ZM72.5903 27.9999H69.0903V24.4999H72.5903V27.9999Z" fill="#BE111F"/>
<path d="M88.3404 34.9999H81.3403C80.3735 34.9999 79.5903 35.783 79.5903 36.7499V43.7499C79.5903 44.7168 80.3735 45.4999 81.3403 45.4999H88.3404C89.3072 45.4999 90.0904 44.7168 90.0904 43.7499V36.7499C90.0904 35.783 89.3072 34.9999 88.3404 34.9999ZM86.5903 41.9999H83.0903V38.4999H86.5903V41.9999Z" fill="#BE111F"/>
<path d="M74.3403 34.9999H67.3403C66.3735 34.9999 65.5903 35.783 65.5903 36.7499V43.7499C65.5903 44.7168 66.3735 45.4999 67.3403 45.4999H74.3403C75.3072 45.4999 76.0903 44.7168 76.0903 43.7499V36.7499C76.0903 35.783 75.3072 34.9999 74.3403 34.9999ZM72.5903 41.9999H69.0903V38.4999H72.5903V41.9999Z" fill="#BE111F"/>
<path d="M16.5903 12.2499V17.4999H20.0903V12.2499H25.3403V8.74991H20.0903C18.1571 8.74991 16.5903 10.3167 16.5903 12.2499Z" fill="black"/>
</g>
<defs>
<clipPath id="clip0">
<rect width="105" height="105" fill="white"/>
</clipPath>
</defs>
</svg>
