<svg width="191" height="191" viewBox="0 0 191 191" fill="none" xmlns="http://www.w3.org/2000/svg">
<g clip-path="url(#clip0)">
<path d="M167.061 0H26.9947C19.9625 0 14.2614 5.70115 14.2614 12.7333V101.867C14.2614 108.899 19.9625 114.6 26.9947 114.6H77.0337L72.2587 133.7H65.1947V140.067H128.861V133.7H121.797L117.022 114.6H167.061C174.094 114.6 179.795 108.899 179.795 101.867V12.7333C179.795 5.70115 174.094 0 167.061 0ZM20.6281 12.7333C20.6281 9.21675 23.4781 6.36667 26.9947 6.36667H167.061C170.578 6.36667 173.428 9.21675 173.428 12.7333V89.1333H20.6281V12.7333ZM115.234 133.7H78.8224L83.5974 114.6H110.459L115.234 133.7ZM173.428 101.867C173.428 105.383 170.578 108.233 167.061 108.233H26.9947C23.4781 108.233 20.6281 105.383 20.6281 101.867V95.5H173.428V101.867Z" fill="#7E7E7E"/>
<path d="M23.8116 146.433C22.0528 146.433 20.6282 147.858 20.6282 149.616V187.816C20.6282 189.575 22.0528 191 23.8116 191H125.678C127.437 191 128.862 189.575 128.862 187.816V149.616C128.862 147.858 127.437 146.433 125.678 146.433H23.8116ZM122.495 184.633H26.9949V152.8H122.495V184.633Z" fill="#7E7E7E"/>
<path d="M33.3614 171.9H39.7281V178.267H33.3614V171.9Z" fill="black"/>
<path d="M109.761 171.9H116.128V178.267H109.761V171.9Z" fill="black"/>
<path d="M33.3614 159.167H39.7281V165.533H33.3614V159.167Z" fill="black"/>
<path d="M46.0951 159.167H52.4618V165.533H46.0951V159.167Z" fill="black"/>
<path d="M58.8282 159.167H65.1949V165.533H58.8282V159.167Z" fill="black"/>
<path d="M71.5614 159.167H77.928V165.533H71.5614V159.167Z" fill="black"/>
<path d="M97.0282 159.167H103.395V165.533H97.0282V159.167Z" fill="black"/>
<path d="M84.2951 159.167H90.6617V165.533H84.2951V159.167Z" fill="black"/>
<path d="M109.761 159.167H116.128V165.533H109.761V159.167Z" fill="black"/>
<path d="M58.8282 171.9H90.6615V178.267H58.8282V171.9Z" fill="black"/>
<path d="M46.0951 171.9H52.4618V178.267H46.0951V171.9Z" fill="black"/>
<path d="M97.0282 171.9H103.395V178.267H97.0282V171.9Z" fill="black"/>
<path d="M147.961 159.167H154.328V168.717H147.961V159.167Z" fill="black"/>
<path d="M11.0782 162.35H14.2616V155.984H11.0782C9.31944 155.984 7.8949 154.559 7.8949 152.8V130.517C7.8949 128.758 9.31944 127.334 11.0782 127.334H68.3782V120.967H11.0782C5.80484 120.967 1.52823 125.243 1.52823 130.517V152.8C1.52823 158.074 5.80484 162.35 11.0782 162.35Z" fill="#7E7E7E"/>
<path d="M157.512 140.067H179.795C185.068 140.067 189.345 135.79 189.345 130.517C189.345 125.243 185.068 120.967 179.795 120.967H125.678V127.334H179.795C181.554 127.334 182.978 128.758 182.978 130.517C182.978 132.276 181.554 133.7 179.795 133.7H157.512C152.238 133.7 147.962 137.977 147.962 143.25V146.752C140.555 148.275 135.238 154.79 135.228 162.35V175.084C135.228 183.874 142.355 191 151.145 191C159.935 191 167.062 183.874 167.062 175.084V162.35C167.052 154.79 161.734 148.275 154.328 146.752V143.25C154.328 141.491 155.753 140.067 157.512 140.067ZM160.695 162.35V175.084C160.695 180.357 156.418 184.634 151.145 184.634C145.872 184.634 141.595 180.357 141.595 175.084V162.35C141.595 157.077 145.872 152.8 151.145 152.8C156.418 152.8 160.695 157.077 160.695 162.35Z" fill="#7E7E7E"/>
<path d="M160.695 12.7332H147.962C146.203 12.7332 144.778 14.1577 144.778 15.9165V28.6498C144.778 30.4086 146.203 31.8332 147.962 31.8332H160.695C162.454 31.8332 163.878 30.4086 163.878 28.6498V15.9165C163.878 14.1577 162.454 12.7332 160.695 12.7332ZM157.512 25.4665H151.145V19.0998H157.512V25.4665Z" fill="#BE111F"/>
<path d="M135.228 12.7332H122.495C120.736 12.7332 119.311 14.1577 119.311 15.9165V28.6498C119.311 30.4086 120.736 31.8332 122.495 31.8332H135.228C136.987 31.8332 138.411 30.4086 138.411 28.6498V15.9165C138.411 14.1577 136.987 12.7332 135.228 12.7332ZM132.045 25.4665H125.678V19.0998H132.045V25.4665Z" fill="#BE111F"/>
<path d="M160.695 38.2H147.962C146.203 38.2 144.778 39.6246 144.778 41.3833V54.1167C144.778 55.8755 146.203 57.3 147.962 57.3H160.695C162.454 57.3 163.878 55.8755 163.878 54.1167V41.3833C163.878 39.6246 162.454 38.2 160.695 38.2ZM157.512 50.9333H151.145V44.5667H157.512V50.9333Z" fill="#BE111F"/>
<path d="M135.228 38.2H122.495C120.736 38.2 119.311 39.6246 119.311 41.3833V54.1167C119.311 55.8755 120.736 57.3 122.495 57.3H135.228C136.987 57.3 138.411 55.8755 138.411 54.1167V41.3833C138.411 39.6246 136.987 38.2 135.228 38.2ZM132.045 50.9333H125.678V44.5667H132.045V50.9333Z" fill="#BE111F"/>
<path d="M160.695 63.6669H147.962C146.203 63.6669 144.778 65.0914 144.778 66.8502V79.5835C144.778 81.3423 146.203 82.7669 147.962 82.7669H160.695C162.454 82.7669 163.878 81.3423 163.878 79.5835V66.8502C163.878 65.0914 162.454 63.6669 160.695 63.6669ZM157.512 76.4002H151.145V70.0335H157.512V76.4002Z" fill="#BE111F"/>
<path d="M135.228 63.6669H122.495C120.736 63.6669 119.311 65.0914 119.311 66.8502V79.5835C119.311 81.3423 120.736 82.7669 122.495 82.7669H135.228C136.987 82.7669 138.411 81.3423 138.411 79.5835V66.8502C138.411 65.0914 136.987 63.6669 135.228 63.6669ZM132.045 76.4002H125.678V70.0335H132.045V76.4002Z" fill="#BE111F"/>
<path d="M30.1782 22.2835V31.8335H36.5449V22.2835H46.0949V15.9169H36.5449C33.0283 15.9169 30.1782 18.7669 30.1782 22.2835Z" fill="black"/>
</g>
<defs>
<clipPath id="clip0">
<rect width="191" height="191" fill="white"/>
</clipPath>
</defs>
</svg>
