<svg width="189" height="191" viewBox="0 0 189 191" fill="none" xmlns="http://www.w3.org/2000/svg">
<path d="M166.061 0H25.9947C18.9625 0 13.2614 5.70115 13.2614 12.7333V101.867C13.2614 108.899 18.9625 114.6 25.9947 114.6H76.0337L71.2587 133.7H64.1947V140.067H127.861V133.7H120.797L116.022 114.6H166.061C173.094 114.6 178.795 108.899 178.795 101.867V12.7333C178.795 5.70115 173.094 0 166.061 0ZM19.628 12.7333C19.628 9.21675 22.4781 6.36667 25.9947 6.36667H166.061C169.578 6.36667 172.428 9.21675 172.428 12.7333V89.1333H19.628V12.7333ZM114.234 133.7H77.8223L82.5973 114.6H109.459L114.234 133.7ZM172.428 101.867C172.428 105.383 169.578 108.233 166.061 108.233H25.9947C22.4781 108.233 19.628 105.383 19.628 101.867V95.5H172.428V101.867Z" fill="black"/>
<path d="M22.8115 146.433C21.0527 146.433 19.6282 147.858 19.6282 149.616V187.816C19.6282 189.575 21.0527 191 22.8115 191H124.678C126.437 191 127.862 189.575 127.862 187.816V149.616C127.862 147.858 126.437 146.433 124.678 146.433H22.8115ZM121.495 184.633H25.9948V152.8H121.495V184.633Z" fill="black"/>
<path d="M32.3613 171.9H38.728V178.267H32.3613V171.9Z" fill="black"/>
<path d="M108.761 171.9H115.128V178.267H108.761V171.9Z" fill="black"/>
<path d="M32.3613 159.167H38.728V165.533H32.3613V159.167Z" fill="black"/>
<path d="M45.0951 159.167H51.4618V165.533H45.0951V159.167Z" fill="black"/>
<path d="M57.8282 159.167H64.1949V165.533H57.8282V159.167Z" fill="black"/>
<path d="M70.5614 159.167H76.9281V165.533H70.5614V159.167Z" fill="black"/>
<path d="M96.0282 159.167H102.395V165.533H96.0282V159.167Z" fill="black"/>
<path d="M83.295 159.167H89.6617V165.533H83.295V159.167Z" fill="black"/>
<path d="M108.761 159.167H115.128V165.533H108.761V159.167Z" fill="black"/>
<path d="M57.8282 171.9H89.6616V178.267H57.8282V171.9Z" fill="black"/>
<path d="M45.0951 171.9H51.4618V178.267H45.0951V171.9Z" fill="black"/>
<path d="M96.0282 171.9H102.395V178.267H96.0282V171.9Z" fill="black"/>
<path d="M146.961 159.167H153.328V168.717H146.961V159.167Z" fill="black"/>
<path d="M10.0782 162.35H13.2615V155.984H10.0782C8.31941 155.984 6.89486 154.559 6.89486 152.8V130.517C6.89486 128.758 8.31941 127.334 10.0782 127.334H67.3782V120.967H10.0782C4.80481 120.967 0.528198 125.243 0.528198 130.517V152.8C0.528198 158.074 4.80481 162.35 10.0782 162.35Z" fill="black"/>
<path d="M156.512 140.067H178.795C184.068 140.067 188.345 135.79 188.345 130.517C188.345 125.243 184.068 120.967 178.795 120.967H124.678V127.334H178.795C180.554 127.334 181.978 128.758 181.978 130.517C181.978 132.276 180.554 133.7 178.795 133.7H156.512C151.238 133.7 146.962 137.977 146.962 143.25V146.752C139.555 148.275 134.238 154.79 134.228 162.35V175.084C134.228 183.874 141.355 191 150.145 191C158.935 191 166.062 183.874 166.062 175.084V162.35C166.052 154.79 160.734 148.275 153.328 146.752V143.25C153.328 141.491 154.753 140.067 156.512 140.067ZM159.695 162.35V175.084C159.695 180.357 155.418 184.634 150.145 184.634C144.872 184.634 140.595 180.357 140.595 175.084V162.35C140.595 157.077 144.872 152.8 150.145 152.8C155.418 152.8 159.695 157.077 159.695 162.35Z" fill="black"/>
<path d="M159.695 12.7332H146.962C145.203 12.7332 143.778 14.1577 143.778 15.9165V28.6498C143.778 30.4086 145.203 31.8332 146.962 31.8332H159.695C161.454 31.8332 162.878 30.4086 162.878 28.6498V15.9165C162.878 14.1577 161.454 12.7332 159.695 12.7332ZM156.512 25.4665H150.145V19.0998H156.512V25.4665Z" fill="#BE111F"/>
<path d="M134.228 12.7332H121.495C119.736 12.7332 118.311 14.1577 118.311 15.9165V28.6498C118.311 30.4086 119.736 31.8332 121.495 31.8332H134.228C135.987 31.8332 137.411 30.4086 137.411 28.6498V15.9165C137.411 14.1577 135.987 12.7332 134.228 12.7332ZM131.045 25.4665H124.678V19.0998H131.045V25.4665Z" fill="#BE111F"/>
<path d="M159.695 38.2H146.962C145.203 38.2 143.778 39.6246 143.778 41.3833V54.1167C143.778 55.8755 145.203 57.3 146.962 57.3H159.695C161.454 57.3 162.878 55.8755 162.878 54.1167V41.3833C162.878 39.6246 161.454 38.2 159.695 38.2ZM156.512 50.9333H150.145V44.5667H156.512V50.9333Z" fill="#BE111F"/>
<path d="M134.228 38.2H121.495C119.736 38.2 118.311 39.6246 118.311 41.3833V54.1167C118.311 55.8755 119.736 57.3 121.495 57.3H134.228C135.987 57.3 137.411 55.8755 137.411 54.1167V41.3833C137.411 39.6246 135.987 38.2 134.228 38.2ZM131.045 50.9333H124.678V44.5667H131.045V50.9333Z" fill="#BE111F"/>
<path d="M159.695 63.6669H146.962C145.203 63.6669 143.778 65.0914 143.778 66.8502V79.5835C143.778 81.3423 145.203 82.7669 146.962 82.7669H159.695C161.454 82.7669 162.878 81.3423 162.878 79.5835V66.8502C162.878 65.0914 161.454 63.6669 159.695 63.6669ZM156.512 76.4002H150.145V70.0335H156.512V76.4002Z" fill="#BE111F"/>
<path d="M134.228 63.6669H121.495C119.736 63.6669 118.311 65.0914 118.311 66.8502V79.5835C118.311 81.3423 119.736 82.7669 121.495 82.7669H134.228C135.987 82.7669 137.411 81.3423 137.411 79.5835V66.8502C137.411 65.0914 135.987 63.6669 134.228 63.6669ZM131.045 76.4002H124.678V70.0335H131.045V76.4002Z" fill="#BE111F"/>
<path d="M29.1782 22.2835V31.8335H35.5449V22.2835H45.0949V15.9169H35.5449C32.0283 15.9169 29.1782 18.7669 29.1782 22.2835Z" fill="black"/>
</svg>
