<svg width="190" height="191" viewBox="0 0 190 191" fill="none" xmlns="http://www.w3.org/2000/svg">
<g clip-path="url(#clip0)">
<path d="M12.6667 191H164.667C171.662 191 177.333 185.299 177.333 178.267V168.717C177.333 166.958 175.916 165.534 174.167 165.534H167.833V114.6H161.5V165.534H155.167V114.6H148.833V165.534H108.414C105.042 165.522 101.957 167.439 100.461 170.478C100.029 171.354 99.1384 171.908 98.1667 171.9H79.9138C78.943 171.906 78.0534 171.353 77.6249 170.478C76.1267 167.439 73.0411 165.522 69.6667 165.534H28.5V85.9502C28.5 84.1914 29.9171 82.7669 31.6667 82.7669H88.6667V76.4002H31.6667C26.4209 76.4002 22.1667 80.6768 22.1667 85.9502V165.534H15.8333V79.5835C15.8333 74.3101 20.0875 70.0335 25.3333 70.0335H88.6667V63.6669H25.3333C16.5933 63.6778 9.51088 70.7975 9.5 79.5835V165.534H3.16667C1.41708 165.534 0 166.958 0 168.717V178.267C0 185.299 5.6713 191 12.6667 191ZM6.33333 171.9H69.6667C70.6374 171.895 71.5271 172.446 71.9605 173.319C73.4548 176.359 76.5423 178.279 79.9138 178.267H98.1667C101.541 178.279 104.629 176.359 106.125 173.319C106.553 172.445 107.444 171.894 108.414 171.9H171V178.267C171 181.783 168.165 184.634 164.667 184.634H12.6667C9.16849 184.634 6.33333 181.783 6.33333 178.267V171.9Z" fill="black"/>
<path d="M41.1665 117.783V143.25C41.1665 145.009 42.5836 146.433 44.3332 146.433H133C134.749 146.433 136.167 145.009 136.167 143.25V117.783C136.167 116.025 134.749 114.6 133 114.6H44.3332C42.5836 114.6 41.1665 116.025 41.1665 117.783ZM47.4998 120.967H129.833V140.067H47.4998V120.967Z" fill="black"/>
<path d="M53.8335 127.333H60.1668V133.7H53.8335V127.333Z" fill="black"/>
<path d="M66.5 127.333H72.8333V133.7H66.5V127.333Z" fill="black"/>
<path d="M79.1665 127.333H85.4998V133.7H79.1665V127.333Z" fill="black"/>
<path d="M91.8333 127.333H98.1666V133.7H91.8333V127.333Z" fill="black"/>
<path d="M180.5 47.8684V38.2C180.5 17.1025 163.487 0 142.5 0C121.513 0 104.5 17.1025 104.5 38.2V47.8684C99.1117 48.4454 95.0188 53.0045 95 58.452V97.5314C95.0079 103.439 99.7718 108.228 105.649 108.233H179.351C185.228 108.228 189.992 103.439 190 97.5314V58.452C189.981 53.0045 185.888 48.4454 180.5 47.8684ZM110.833 38.2C110.833 20.6181 125.01 6.36667 142.5 6.36667C159.99 6.36667 174.167 20.6181 174.167 38.2V47.75H167.833V38.2C167.833 24.1346 156.492 12.7333 142.5 12.7333C128.508 12.7333 117.167 24.1346 117.167 38.2V47.75H110.833V38.2ZM123.5 47.75V38.2C123.5 27.6532 132.008 19.1 142.5 19.1C152.992 19.1 161.5 27.6532 161.5 38.2V47.75H123.5ZM183.667 97.5314C183.665 99.9258 181.732 101.866 179.351 101.867H105.649C103.268 101.866 101.335 99.9258 101.333 97.5314V58.452C101.335 56.0575 103.268 54.1177 105.649 54.1167H179.351C181.732 54.1177 183.665 56.0575 183.667 58.452V97.5314Z" fill="#BE111F"/>
<path d="M142.5 66.8499C137.878 66.84 133.925 70.1835 133.14 74.7635C132.358 79.3425 134.974 83.8211 139.333 85.364V92.3166H145.666V85.364C150.026 83.8211 152.642 79.3425 151.859 74.7635C151.075 70.1835 147.121 66.84 142.5 66.8499ZM142.5 79.5833C140.75 79.5833 139.333 78.1587 139.333 76.3999C139.333 74.6412 140.75 73.2166 142.5 73.2166C144.249 73.2166 145.666 74.6412 145.666 76.3999C145.666 78.1587 144.249 79.5833 142.5 79.5833Z" fill="#BE111F"/>
<path d="M57 50.9331H63.3333V57.2998H57V50.9331Z" fill="black"/>
<path d="M57 38.2H63.3333V44.5667H57V38.2Z" fill="black"/>
<path d="M57 25.4669H63.3333V31.8335H57V25.4669Z" fill="black"/>
<path d="M57 12.7332H63.3333V19.0998H57V12.7332Z" fill="black"/>
<path d="M69.6665 12.7332H75.9998V19.0998H69.6665V12.7332Z" fill="black"/>
<path d="M82.3333 12.7332H88.6666V19.0998H82.3333V12.7332Z" fill="black"/>
<path d="M95 12.7332H101.333V19.0998H95V12.7332Z" fill="black"/>
</g>
<defs>
<clipPath id="clip0">
<rect width="190" height="191" fill="white"/>
</clipPath>
</defs>
</svg>
