<svg width="105" height="105" viewBox="0 0 105 105" fill="none" xmlns="http://www.w3.org/2000/svg">
<path d="M7 105H91C94.8658 105 98 101.866 98 97.9999V92.7499C98 91.783 97.2169 90.9999 96.25 90.9999H92.75V62.9999H89.25V90.9999H85.75V62.9999H82.25V90.9999H59.9129C58.0497 90.9933 56.3445 92.0472 55.5176 93.7179C55.2792 94.1997 54.787 94.5043 54.25 94.4999H44.1629C43.6264 94.5032 43.1348 94.1991 42.898 93.7179C42.07 92.0472 40.3648 90.9933 38.5 90.9999H15.75V47.2499C15.75 46.283 16.5331 45.4999 17.5 45.4999H49V41.9999H17.5C14.601 41.9999 12.25 44.3509 12.25 47.2499V90.9999H8.75V43.7499C8.75 40.8509 11.101 38.4999 14 38.4999H49V34.9999H14C9.17 35.0059 5.25601 38.9199 5.25 43.7499V90.9999H1.75C0.783125 90.9999 0 91.783 0 92.7499V97.9999C0 101.866 3.13414 105 7 105ZM3.5 94.4999H38.5C39.0365 94.4972 39.5281 94.8001 39.7676 95.2798C40.5934 96.951 42.2997 98.0065 44.1629 97.9999H54.25C56.1148 98.0065 57.8211 96.951 58.648 95.2798C58.8848 94.7996 59.3769 94.4966 59.9129 94.4999H94.5V97.9999C94.5 99.9331 92.9332 101.5 91 101.5H7C5.0668 101.5 3.5 99.9331 3.5 97.9999V94.4999Z" fill="black"/>
<path d="M22.7498 64.7499V78.7499C22.7498 79.7167 23.5329 80.4999 24.4998 80.4999H73.4998C74.4666 80.4999 75.2498 79.7167 75.2498 78.7499V64.7499C75.2498 63.783 74.4666 62.9999 73.4998 62.9999H24.4998C23.5329 62.9999 22.7498 63.783 22.7498 64.7499ZM26.2498 66.4999H71.7498V76.9999H26.2498V66.4999Z" fill="black"/>
<path d="M29.7502 70.0001H33.2502V73.5001H29.7502V70.0001Z" fill="black"/>
<path d="M36.75 70.0001H40.25V73.5001H36.75V70.0001Z" fill="black"/>
<path d="M43.75 70.0001H47.25V73.5001H43.75V70.0001Z" fill="black"/>
<path d="M50.7498 70.0001H54.2498V73.5001H50.7498V70.0001Z" fill="black"/>
<path d="M99.75 26.3151V21C99.75 9.40188 90.3481 0 78.75 0C67.1519 0 57.75 9.40188 57.75 21V26.3151C54.7723 26.6323 52.5104 29.1386 52.5 32.1333V53.6167C52.5044 56.8646 55.137 59.4973 58.3849 59.5H99.1151C102.363 59.4973 104.996 56.8646 105 53.6167V32.1333C104.99 29.1386 102.728 26.6323 99.75 26.3151ZM61.25 21C61.25 11.3345 69.0845 3.5 78.75 3.5C88.4155 3.5 96.25 11.3345 96.25 21V26.25H92.75V21C92.75 13.2677 86.4823 7 78.75 7C71.0177 7 64.75 13.2677 64.75 21V26.25H61.25V21ZM68.25 26.25V21C68.25 15.202 72.952 10.5 78.75 10.5C84.548 10.5 89.25 15.202 89.25 21V26.25H68.25ZM101.5 53.6167C101.499 54.933 100.431 55.9995 99.1151 56H58.3849C57.0691 55.9995 56.0011 54.933 56 53.6167V32.1333C56.0011 30.817 57.0691 29.7505 58.3849 29.75H99.1151C100.431 29.7505 101.499 30.817 101.5 32.1333V53.6167Z" fill="#BE111F"/>
<path d="M78.75 36.7498C76.1961 36.7444 74.0113 38.5824 73.5776 41.1002C73.1451 43.6175 74.591 46.0795 77 46.9277V50.7498H80.5V46.9277C82.909 46.0795 84.3549 43.6175 83.9223 41.1002C83.4887 38.5824 81.3039 36.7444 78.75 36.7498ZM78.75 43.7498C77.7831 43.7498 77 42.9667 77 41.9998C77 41.033 77.7831 40.2498 78.75 40.2498C79.7169 40.2498 80.5 41.033 80.5 41.9998C80.5 42.9667 79.7169 43.7498 78.75 43.7498Z" fill="#BE111F"/>
<path d="M31.4998 27.9995H34.9998V31.4996H31.4998V27.9995Z" fill="black"/>
<path d="M31.4998 20.9998H34.9998V24.4998H31.4998V20.9998Z" fill="black"/>
<path d="M31.4998 14H34.9998V17.5H31.4998V14Z" fill="black"/>
<path d="M31.4998 6.99976H34.9998V10.4998H31.4998V6.99976Z" fill="black"/>
<path d="M38.5002 6.99976H42.0002V10.4998H38.5002V6.99976Z" fill="black"/>
<path d="M45.5 6.99976H49V10.4998H45.5V6.99976Z" fill="black"/>
<path d="M52.5 6.99976H56V10.4998H52.5V6.99976Z" fill="black"/>
</svg>
