<svg width="105" height="105" viewBox="0 0 105 105" fill="none" xmlns="http://www.w3.org/2000/svg">
<g clip-path="url(#clip0)">
<path d="M103.25 0.104706H36.7504C35.7841 0.104706 35.0002 0.888591 35.0002 1.85434V15.8547C35.0002 16.821 35.7841 17.6044 36.7504 17.6044H41.9999V24.604H101.5V35.1046H73.4999V38.6044H87.5003V42.1047H73.4999V45.6046H101.5V56.104H73.4999V59.6044H87.5003V63.1042H73.4999V66.604H101.5V77.1046H70.0001V80.6044H87.5003V85.8539C87.5003 86.8207 88.2836 87.6046 89.2499 87.6046H96.2501C97.2164 87.6046 98.0003 86.8207 98.0003 85.8539V80.6044H103.25C104.217 80.6044 105 79.8205 105 78.8542V64.8544C105 63.8881 104.217 63.1042 103.25 63.1042H98.0003V59.6044H103.25C104.217 59.6044 105 58.8211 105 57.8548V43.8549C105 42.8875 104.217 42.1047 103.25 42.1047H98.0003V38.6044H103.25C104.217 38.6044 105 37.8205 105 36.8542V22.8544C105 21.8881 104.217 21.1042 103.25 21.1042H98.0003V17.6044H103.25C104.217 17.6044 105 16.821 105 15.8547V1.85434C105 0.888591 104.217 0.104706 103.25 0.104706ZM94.5005 84.1042H91.0001V80.6044H94.5005V84.1042ZM94.5005 63.1042H91.0001V59.6044H94.5005V63.1042ZM94.5005 42.1047H91.0001V38.6044H94.5005V42.1047ZM45.4997 21.1042V17.6044H49.0006V21.1042H45.4997ZM87.5003 17.6044V21.1042H52.5004V17.6044H87.5003ZM94.5005 21.1042H91.0001V17.6044H94.5005V21.1042ZM101.5 14.1045H38.5001V3.60453H101.5V14.1045Z" fill="black"/>
<path d="M94.5007 7.10443H98.0005V10.6043H94.5007V7.10443Z" fill="black"/>
<path d="M87.5005 7.10443H91.0003V10.6043H87.5005V7.10443Z" fill="black"/>
<path d="M80.5 7.10443H83.9998V10.6043H80.5V7.10443Z" fill="black"/>
<path d="M41.9998 7.10443H45.4996V10.6043H41.9998V7.10443Z" fill="black"/>
<path d="M94.5007 28.1049H98.0005V31.6047H94.5007V28.1049Z" fill="black"/>
<path d="M87.5005 28.1049H91.0003V31.6047H87.5005V28.1049Z" fill="black"/>
<path d="M80.5 28.1049H83.9998V31.6047H80.5V28.1049Z" fill="black"/>
<path d="M94.5007 49.1045H98.0005V52.6043H94.5007V49.1045Z" fill="black"/>
<path d="M87.5005 49.1045H91.0003V52.6043H87.5005V49.1045Z" fill="black"/>
<path d="M80.5 49.1045H83.9998V52.6043H80.5V49.1045Z" fill="black"/>
<path d="M94.5007 70.104H98.0005V73.6049H94.5007V70.104Z" fill="black"/>
<path d="M87.5005 70.104H91.0003V73.6049H87.5005V70.104Z" fill="black"/>
<path d="M80.5 70.104H83.9998V73.6049H80.5V70.104Z" fill="black"/>
<path d="M70.0002 36.8541C70.0002 35.8878 69.2168 35.1045 68.2505 35.1045C57.1825 35.1154 46.3615 31.8391 37.1592 25.6913L35.971 24.8981C35.3827 24.5064 34.6169 24.5064 34.0286 24.8981L32.8404 25.6913C23.6381 31.8391 12.8171 35.1154 1.75014 35.1045C0.783846 35.1045 -3.93617e-05 35.8878 -3.93617e-05 36.8541V57.9861C-0.0619394 79.5263 13.9149 98.5959 34.4745 105.023C34.8168 105.131 35.1833 105.131 35.5251 105.023C56.0853 98.5959 70.0615 79.5263 70.0002 57.9861V36.8541ZM66.5004 57.9861C66.5557 77.7931 53.8317 95.3754 35.0003 101.516C16.1679 95.3754 3.44391 77.7931 3.50088 57.9861V38.578C14.6582 38.2625 25.5006 34.8054 34.7818 28.6033L35.0003 28.4549L35.2195 28.5995C44.499 34.8026 55.3419 38.2614 66.5004 38.578V57.9861Z" fill="black"/>
<path d="M34.101 33.1799C26.312 37.8569 17.5972 40.7777 8.56256 41.7391C7.6735 41.8349 7.00081 42.5849 7.00081 43.4788V57.9865C6.89126 75.6324 17.8366 91.4602 34.3848 97.5888C34.7786 97.7378 35.2147 97.7378 35.6085 97.5888C52.1605 91.4623 63.108 75.634 63.0007 57.9865V43.4788C62.9996 42.5849 62.3263 41.8349 61.4373 41.7391C52.4043 40.7777 43.6878 37.8563 35.8994 33.1799C35.3456 32.8479 34.6548 32.8479 34.101 33.1799ZM59.5003 45.0324V57.9826C59.6027 73.9287 49.8581 88.2874 35.0005 94.0802C20.1434 88.2874 10.3987 73.9315 10.5006 57.9865V45.0357C19.1382 43.9083 27.4656 41.0784 35.0005 36.7076C42.5353 41.0757 50.8633 43.9061 59.5003 45.0324Z" fill="#BE111F"/>
<path d="M33.2505 42.1049H36.7503V45.6047H33.2505V42.1049Z" fill="#BE111F"/>
<path d="M33.2505 85.8535H36.7503V89.3543H33.2505V85.8535Z" fill="#BE111F"/>
<path d="M14 49.1045H17.4998V52.6043H14V49.1045Z" fill="#BE111F"/>
<path d="M22.7505 45.6044H26.2503V49.1043H22.7505V45.6044Z" fill="#BE111F"/>
<path d="M52.5005 49.1045H56.0003V52.6043H52.5005V49.1045Z" fill="#BE111F"/>
<path d="M14 59.6044H17.4998V63.1042H14V59.6044Z" fill="#BE111F"/>
<path d="M52.5005 59.6044H56.0003V63.1042H52.5005V59.6044Z" fill="#BE111F"/>
<path d="M17.5002 70.104H21.0006V73.6049H17.5002V70.104Z" fill="#BE111F"/>
<path d="M49.0005 70.104H52.5003V73.6049H49.0005V70.104Z" fill="#BE111F"/>
<path d="M24.5005 80.6049H28.0003V84.1047H24.5005V80.6049Z" fill="#BE111F"/>
<path d="M41.9998 80.6049H45.4996V84.1047H41.9998V80.6049Z" fill="#BE111F"/>
<path d="M43.75 45.6044H47.2498V49.1043H43.75V45.6044Z" fill="#BE111F"/>
</g>
<defs>
<clipPath id="clip0">
<rect width="105" height="105" fill="white"/>
</clipPath>
</defs>
</svg>
