<svg width="191" height="191" viewBox="0 0 191 191" fill="none" xmlns="http://www.w3.org/2000/svg">
<path d="M187.816 0.191223H66.8508C65.093 0.191223 63.6671 1.61715 63.6671 3.37389V28.8412C63.6671 30.599 65.093 32.0239 66.8508 32.0239H76.3998V44.7566H184.634V63.8576H133.7V70.2239H159.167V76.5913H133.7V82.9576H184.634V102.057H133.7V108.424H159.167V114.79H133.7V121.157H184.634V140.258H127.334V146.624H159.167V156.173C159.167 157.932 160.592 159.358 162.35 159.358H175.084C176.841 159.358 178.267 157.932 178.267 156.173V146.624H187.816C189.576 146.624 191 145.198 191 143.44V117.974C191 116.216 189.576 114.79 187.816 114.79H178.267V108.424H187.816C189.576 108.424 191 106.999 191 105.241V79.7749C191 78.0152 189.576 76.5913 187.816 76.5913H178.267V70.2239H187.816C189.576 70.2239 191 68.798 191 67.0403V41.5739C191 39.8162 189.576 38.3903 187.816 38.3903H178.267V32.0239H187.816C189.576 32.0239 191 30.599 191 28.8412V3.37389C191 1.61715 189.576 0.191223 187.816 0.191223ZM171.901 152.99H165.534V146.624H171.901V152.99ZM171.901 114.79H165.534V108.424H171.901V114.79ZM171.901 76.5913H165.534V70.2239H171.901V76.5913ZM82.7661 38.3903V32.0239H89.1345V38.3903H82.7661ZM159.167 32.0239V38.3903H95.5008V32.0239H159.167ZM171.901 38.3903H165.534V32.0239H171.901V38.3903ZM184.634 25.6576H70.0335V6.55756H184.634V25.6576Z" fill="black"/>
<path d="M171.901 12.9239H178.267V19.2902H171.901V12.9239Z" fill="black"/>
<path d="M159.167 12.9239H165.534V19.2902H159.167V12.9239Z" fill="black"/>
<path d="M146.434 12.9239H152.8V19.2902H146.434V12.9239Z" fill="black"/>
<path d="M76.3998 12.9239H82.7661V19.2902H76.3998V12.9239Z" fill="black"/>
<path d="M171.901 51.1249H178.267V57.4913H171.901V51.1249Z" fill="black"/>
<path d="M159.167 51.1249H165.534V57.4913H159.167V51.1249Z" fill="black"/>
<path d="M146.434 51.1249H152.8V57.4913H146.434V51.1249Z" fill="black"/>
<path d="M171.901 89.3238H178.267V95.6901H171.901V89.3238Z" fill="black"/>
<path d="M159.167 89.3238H165.534V95.6901H159.167V89.3238Z" fill="black"/>
<path d="M146.434 89.3238H152.8V95.6901H146.434V89.3238Z" fill="black"/>
<path d="M171.901 127.523H178.267V133.891H171.901V127.523Z" fill="black"/>
<path d="M159.167 127.523H165.534V133.891H159.167V127.523Z" fill="black"/>
<path d="M146.434 127.523H152.8V133.891H146.434V127.523Z" fill="black"/>
<path d="M127.334 67.0401C127.334 65.2824 125.909 63.8575 124.151 63.8575C104.018 63.8774 84.3337 57.9176 67.5943 46.7344L65.433 45.2916C64.3628 44.5791 62.9697 44.5791 61.8995 45.2916L59.7382 46.7344C42.9988 57.9176 23.3149 63.8774 3.18355 63.8575C1.42581 63.8575 -0.000115779 65.2824 -0.000115779 67.0401V105.48C-0.112715 144.663 25.3118 179.351 62.7107 191.042C63.3334 191.239 64.0001 191.239 64.6219 191.042C102.022 179.351 127.445 144.663 127.334 105.48V67.0401ZM120.967 105.48C121.068 141.51 97.9223 173.493 63.6673 184.662C29.4102 173.493 6.26458 141.51 6.36822 105.48V70.176C26.664 69.602 46.3868 63.3134 63.2697 52.0316L63.6673 51.7615L64.0658 52.0246C80.9457 63.3084 100.67 69.6 120.967 70.176V105.48Z" fill="black"/>
<path d="M62.031 60.3561C47.8625 68.8639 32.0099 74.1769 15.5754 75.9257C13.9582 76.1001 12.7345 77.4642 12.7345 79.0905V105.481C12.5352 137.579 32.4454 166.371 62.5472 177.519C63.2637 177.79 64.0568 177.79 64.7733 177.519C94.8821 166.375 114.796 137.582 114.601 105.481V79.0905C114.599 77.4642 113.374 76.1001 111.757 75.9257C95.3255 74.1769 79.47 68.8629 65.3024 60.3561C64.295 59.7523 63.0385 59.7523 62.031 60.3561ZM108.234 81.9164V105.474C108.42 134.48 90.694 160.599 63.6672 171.137C36.6414 160.599 18.9155 134.485 19.1009 105.481V81.9224C34.8129 79.8717 49.961 74.724 63.6672 66.7733C77.3734 74.719 92.5225 79.8677 108.234 81.9164Z" fill="#BE111F"/>
<path d="M60.4846 76.5914H66.851V82.9577H60.4846V76.5914Z" fill="#BE111F"/>
<path d="M60.4846 156.173H66.851V162.541H60.4846V156.173Z" fill="#BE111F"/>
<path d="M25.4672 89.3238H31.8335V95.6901H25.4672V89.3238Z" fill="#BE111F"/>
<path d="M41.3844 82.9575H47.7507V89.3239H41.3844V82.9575Z" fill="#BE111F"/>
<path d="M95.501 89.3238H101.867V95.6901H95.501V89.3238Z" fill="#BE111F"/>
<path d="M25.4672 108.424H31.8335V114.79H25.4672V108.424Z" fill="#BE111F"/>
<path d="M95.501 108.424H101.867V114.79H95.501V108.424Z" fill="#BE111F"/>
<path d="M31.8336 127.523H38.201V133.891H31.8336V127.523Z" fill="#BE111F"/>
<path d="M89.1344 127.523H95.5007V133.891H89.1344V127.523Z" fill="#BE111F"/>
<path d="M44.5671 146.624H50.9335V152.99H44.5671V146.624Z" fill="#BE111F"/>
<path d="M76.3998 146.624H82.7661V152.99H76.3998V146.624Z" fill="#BE111F"/>
<path d="M79.5835 82.9575H85.9498V89.3239H79.5835V82.9575Z" fill="#BE111F"/>
</svg>
