<svg width="190" height="141" viewBox="0 0 190 141" fill="none" xmlns="http://www.w3.org/2000/svg">
<path d="M186.833 115.067H180.5V16.3835C180.489 7.59752 173.407 0.477801 164.667 0.466858H25.3333C16.5933 0.477801 9.51089 7.59752 9.5 16.3835V115.067H3.16667C1.41708 115.067 0 116.491 0 118.25V127.8C0 134.832 5.6713 140.534 12.6667 140.534H177.333C184.329 140.534 190 134.832 190 127.8V118.25C190 116.491 188.583 115.067 186.833 115.067ZM15.8333 16.3835C15.8333 11.1101 20.0876 6.83352 25.3333 6.83352H164.667C169.912 6.83352 174.167 11.1101 174.167 16.3835V115.067H167.833V16.3835C167.833 14.6247 166.416 13.2002 164.667 13.2002H25.3333C23.5837 13.2002 22.1667 14.6247 22.1667 16.3835V115.067H15.8333V16.3835ZM161.5 115.067H114.374C110.994 115.048 107.9 116.968 106.4 120.011C105.972 120.886 105.082 121.439 104.11 121.434H85.8741C84.9013 121.439 84.0136 120.886 83.5842 120.011C82.0859 116.972 78.9994 115.055 75.6259 115.067H28.5V19.5669H161.5V115.067ZM183.667 127.8C183.667 131.317 180.832 134.167 177.333 134.167H12.6667C9.16849 134.167 6.33333 131.317 6.33333 127.8V121.434H75.6259C76.5987 121.428 77.4864 121.981 77.9158 122.856C79.4141 125.895 82.5006 127.812 85.8741 127.8H104.126C107.506 127.819 110.6 125.899 112.1 122.856C112.527 121.986 113.407 121.434 114.374 121.434H183.667V127.8Z" fill="black"/>
<path d="M63.3335 70.5004C62.4933 70.5004 61.6888 70.8366 61.0951 71.4335L54.7617 77.8001C54.168 78.397 53.8335 79.2058 53.8335 80.0504V95.967H60.1668V81.3685L64.6447 76.867H76.0002V83.2337H69.6668C67.9172 83.2337 66.5002 84.6582 66.5002 86.417V108.7H72.8335V89.6004H76.2852C77.821 98.7873 85.7337 105.515 95.0002 105.515C104.267 105.515 112.179 98.7873 113.715 89.6004H117.167V108.7H123.5V86.417C123.5 84.6582 122.083 83.2337 120.334 83.2337H114V76.867H125.356L129.834 81.3685V95.967H136.167V80.0504C136.167 79.2058 135.832 78.397 135.239 77.8001L128.905 71.4335C128.312 70.8366 127.507 70.5004 126.667 70.5004H114V64.1337H126.667C128.416 64.1337 129.834 62.7092 129.834 60.9504V38.667H123.5V57.767H113.55C112.696 54.4902 110.58 51.6908 107.667 49.9878V48.217C107.667 41.1849 101.996 35.4837 95.0002 35.4837C88.0048 35.4837 82.3335 41.1849 82.3335 48.217V49.9878C79.4202 51.6908 77.3044 54.4902 76.4504 57.767H66.5002V38.667H60.1668V60.9504C60.1668 62.7092 61.5839 64.1337 63.3335 64.1337H76.0002V70.5004H63.3335ZM107.667 86.417C107.645 92.2057 103.743 97.2503 98.1668 98.6977V67.317H107.667V86.417ZM95.0002 41.8504C98.4983 41.8504 101.333 44.7004 101.333 48.217H88.6668C88.6668 44.7004 91.502 41.8504 95.0002 41.8504ZM88.6668 54.5837H101.333C104.832 54.5837 107.667 57.4338 107.667 60.9504H82.3335C82.3335 57.4338 85.1687 54.5837 88.6668 54.5837ZM82.3335 67.317H91.8335V98.6977C86.2572 97.2503 82.3553 92.2057 82.3335 86.417V67.317Z" fill="#BE111F"/>
<path d="M34.8333 25.9337H41.1666V32.3004H34.8333V25.9337Z" fill="black"/>
<path d="M47.5 25.9337H53.8333V32.3004H47.5V25.9337Z" fill="black"/>
<path d="M60.1667 25.9337H66.5001V32.3004H60.1667V25.9337Z" fill="black"/>
</svg>
