<svg width="105" height="77" viewBox="0 0 105 77" fill="none" xmlns="http://www.w3.org/2000/svg">
<path d="M103.25 63H99.75V8.75003C99.744 3.92003 95.83 0.00604615 91 3.05176e-05H14C9.17 0.00604615 5.25602 3.92003 5.25 8.75003V63H1.75C0.783125 63 0 63.7832 0 64.75V70C0 73.8659 3.13414 77 7 77H98C101.866 77 105 73.8659 105 70V64.75C105 63.7832 104.217 63 103.25 63ZM8.75 8.75003C8.75 5.85105 11.101 3.50003 14 3.50003H91C93.899 3.50003 96.25 5.85105 96.25 8.75003V63H92.75V8.75003C92.75 7.78316 91.9669 7.00003 91 7.00003H14C13.0331 7.00003 12.25 7.78316 12.25 8.75003V63H8.75V8.75003ZM89.25 63H63.2067C61.3386 62.9896 59.6291 64.0451 58.8 65.718C58.5638 66.1992 58.0716 66.5033 57.5345 66.5H47.4567C46.9191 66.5033 46.4286 66.1992 46.1912 65.718C45.3633 64.0473 43.6576 62.9935 41.7933 63H15.75V10.5H89.25V63ZM101.5 70C101.5 71.9332 99.9332 73.5 98 73.5H7C5.0668 73.5 3.5 71.9332 3.5 70V66.5H41.7933C42.3309 66.4967 42.8214 66.8008 43.0588 67.2821C43.8867 68.9528 45.5924 70.0066 47.4567 70H57.5433C59.4114 70.0104 61.1209 68.955 61.95 67.2821C62.1857 66.8035 62.6724 66.5 63.2067 66.5H101.5V70Z" fill="black"/>
<path d="M34.9998 38.5002C34.5355 38.5002 34.0909 38.6851 33.7627 39.0132L30.2627 42.5132C29.9346 42.8413 29.7498 43.2859 29.7498 43.7502V52.5002H33.2498V44.4749L35.7244 42.0002H41.9998V45.5002H38.4998C37.5329 45.5002 36.7498 46.2834 36.7498 47.2502V59.5002H40.2498V49.0002H42.1573C43.006 54.0506 47.3788 57.7491 52.4998 57.7491C57.6207 57.7491 61.9935 54.0506 62.8423 49.0002H64.7498V59.5002H68.2498V47.2502C68.2498 46.2834 67.4666 45.5002 66.4998 45.5002H62.9998V42.0002H69.2752L71.7498 44.4749V52.5002H75.2498V43.7502C75.2498 43.2859 75.0649 42.8413 74.7368 42.5132L71.2368 39.0132C70.9087 38.6851 70.4641 38.5002 69.9998 38.5002H62.9998V35.0002H69.9998C70.9666 35.0002 71.7498 34.2171 71.7498 33.2502V21.0002H68.2498V31.5002H62.7509C62.279 29.6988 61.1098 28.1599 59.4998 27.2237V26.2502C59.4998 22.3844 56.3656 19.2502 52.4998 19.2502C48.6339 19.2502 45.4998 22.3844 45.4998 26.2502V27.2237C43.8898 28.1599 42.7205 29.6988 42.2486 31.5002H36.7498V21.0002H33.2498V33.2502C33.2498 34.2171 34.0329 35.0002 34.9998 35.0002H41.9998V38.5002H34.9998ZM59.4998 47.2502C59.4877 50.4325 57.3314 53.2057 54.2498 54.0014V36.7502H59.4998V47.2502ZM52.4998 22.7502C54.433 22.7502 55.9998 24.317 55.9998 26.2502H48.9998C48.9998 24.317 50.5666 22.7502 52.4998 22.7502ZM48.9998 29.7502H55.9998C57.933 29.7502 59.4998 31.317 59.4998 33.2502H45.4998C45.4998 31.317 47.0666 29.7502 48.9998 29.7502ZM45.4998 36.7502H50.7498V54.0014C47.6681 53.2057 45.5118 50.4325 45.4998 47.2502V36.7502Z" fill="#BE111F"/>
<path d="M19.2502 14.0001H22.7502V17.5001H19.2502V14.0001Z" fill="black"/>
<path d="M26.25 14.0001H29.75V17.5001H26.25V14.0001Z" fill="black"/>
<path d="M33.2498 14.0001H36.7498V17.5001H33.2498V14.0001Z" fill="black"/>
</svg>
