<svg width="90" height="90" viewBox="0 0 90 90" fill="none" xmlns="http://www.w3.org/2000/svg">
<path d="M89.485 16.5087L73.4889 0.514863C73.1593 0.185273 72.7123 0 72.2461 0H20.0391C17.1313 0 14.7656 2.36566 14.7656 5.27344V8.62453C6.13037 12.0118 0 20.4284 0 30.2504C0 31.221 0.787148 32.0082 1.75781 32.0082H23.2191C24.1898 32.0082 24.9769 31.221 24.9769 30.2504V8.78906C24.9769 7.8184 24.1898 7.03125 23.2191 7.03125C21.5249 7.03125 19.8733 7.21529 18.2812 7.56158V5.27344C18.2812 4.30418 19.0698 3.51562 20.0391 3.51562H70.4883V14.2383C70.4883 17.1461 72.8539 19.5117 75.7617 19.5117H86.4844V84.7266C86.4844 85.6958 85.6958 86.4844 84.7266 86.4844H20.0391C19.0698 86.4844 18.2812 85.6958 18.2812 84.7266V69.6679C18.2812 68.6973 17.4941 67.9101 16.5234 67.9101C15.5528 67.9101 14.7656 68.6973 14.7656 69.6679V84.7266C14.7656 87.6343 17.1313 90 20.0391 90H84.7266C87.6343 90 90 87.6343 90 84.7266V17.7516C90 17.2854 89.8147 16.8383 89.485 16.5087ZM21.4611 10.6247V28.4926H3.59332C4.43373 19.0271 11.9958 11.4652 21.4611 10.6247ZM75.7617 15.9961C74.7925 15.9961 74.0039 15.2075 74.0039 14.2383V6.00117L84.0002 15.9961H75.7617Z" fill="black"/>
<path d="M17.766 62.0385C17.4393 61.7113 16.9857 61.5234 16.5234 61.5234C16.0611 61.5234 15.6076 61.7113 15.2807 62.0385C14.9537 62.3654 14.7656 62.8189 14.7656 63.2812C14.7656 63.7436 14.9535 64.1971 15.2807 64.5238C15.6076 64.851 16.0611 65.0391 16.5234 65.0391C16.9857 65.0391 17.4393 64.851 17.766 64.5238C18.0932 64.1971 18.2812 63.7436 18.2812 63.2812C18.2812 62.8189 18.0932 62.3654 17.766 62.0385Z" fill="black"/>
<path d="M29.5158 13.3282C28.5452 13.3282 27.758 14.1154 27.758 15.0861V34.7894H8.05469C7.08402 34.7894 6.29688 35.5765 6.29688 36.5472C6.29688 49.3502 16.7128 59.7663 29.5158 59.7663C42.3188 59.7663 52.7349 49.3502 52.7349 36.5472C52.7349 23.7442 42.3188 13.3282 29.5158 13.3282ZM31.2736 16.9217C35.3887 17.287 39.1435 18.9235 42.1432 21.434L31.2736 32.3035V16.9217ZM29.5158 56.2507C19.2437 56.2507 10.7821 48.3495 9.89037 38.305H29.5158C30.001 38.305 30.4401 38.1085 30.7582 37.7907C30.7584 37.7905 30.7586 37.7905 30.7589 37.7901L44.6297 23.9196C47.4933 27.3415 49.2193 31.7466 49.2193 36.5472C49.2193 47.4117 40.3803 56.2507 29.5158 56.2507Z" fill="black"/>
<path d="M77.0056 55.4773C74.0978 55.4773 71.7322 57.843 71.7322 60.7507C71.7322 61.4795 71.8809 62.174 72.1493 62.806L62.022 72.9333C61.3261 72.5942 60.5449 72.4034 59.7202 72.4034C58.9149 72.4034 58.1517 72.5856 57.4684 72.9095L50.7434 66.1845C50.9764 65.5896 51.1058 64.9429 51.1058 64.2662C51.1058 61.3584 48.7402 58.9927 45.8324 58.9927C42.9246 58.9927 40.5589 61.3584 40.5589 64.2662C40.5589 65.054 40.7338 65.8015 41.045 66.4735L34.5947 72.9238C33.9076 72.595 33.1387 72.4107 32.3276 72.4107C29.4199 72.4107 27.0542 74.7763 27.0542 77.6841C27.0542 80.5919 29.4199 82.9575 32.3276 82.9575C35.2354 82.9575 37.6011 80.5919 37.6011 77.6841C37.6011 76.869 37.4151 76.0966 37.0836 75.407L43.4978 68.9928C44.2022 69.3422 44.9946 69.5396 45.8327 69.5396C46.7793 69.5396 47.6675 69.2877 48.4362 68.8493L54.9716 75.3847C54.6355 76.0782 54.4467 76.8558 54.4467 77.6769C54.4467 80.5847 56.8124 82.9503 59.7202 82.9503C62.6279 82.9503 64.9936 80.5847 64.9936 77.6769C64.9936 76.8757 64.8132 76.116 64.4921 75.4353L74.5248 65.4026C75.2647 65.7988 76.1093 66.0242 77.0056 66.0242C79.9134 66.0242 82.279 63.6585 82.279 60.7507C82.279 57.843 79.9134 55.4773 77.0056 55.4773ZM32.3275 79.4421C31.3582 79.4421 30.5696 78.6535 30.5696 77.6843C30.5696 76.715 31.3582 75.9265 32.3275 75.9265C32.7994 75.9265 33.2275 76.1144 33.5435 76.4181C33.5505 76.4255 33.5567 76.4334 33.5639 76.4406C33.5723 76.4491 33.5815 76.4561 33.5901 76.4642C33.896 76.7806 34.0853 77.2105 34.0853 77.6843C34.0853 78.6533 33.2967 79.4421 32.3275 79.4421ZM45.8324 66.024C44.8631 66.024 44.0746 65.2354 44.0746 64.2662C44.0746 63.2969 44.8631 62.5084 45.8324 62.5084C46.8016 62.5084 47.5902 63.2969 47.5902 64.2662C47.5902 65.2354 46.8016 66.024 45.8324 66.024ZM59.7198 79.4347C58.7505 79.4347 57.962 78.6461 57.962 77.6769C57.962 76.7076 58.7505 75.9191 59.7198 75.9191C60.6891 75.9191 61.4776 76.7076 61.4776 77.6769C61.4776 78.6461 60.6891 79.4347 59.7198 79.4347ZM77.0053 62.5084C76.036 62.5084 75.2474 61.7198 75.2474 60.7506C75.2474 59.7813 76.0362 58.9927 77.0053 58.9927C77.9745 58.9927 78.7631 59.7813 78.7631 60.7506C78.7631 61.7198 77.9745 62.5084 77.0053 62.5084Z" fill="#BE111F"/>
<path d="M68.2194 41.3086H58.9419C57.9712 41.3086 57.1841 42.0957 57.1841 43.0664C57.1841 44.0371 57.9711 44.8242 58.9419 44.8242H68.2194C69.1901 44.8242 69.9773 44.0371 69.9773 43.0664C69.9773 42.0957 69.1901 41.3086 68.2194 41.3086Z" fill="#BE111F"/>
<path d="M77.4648 41.8236C77.138 41.4967 76.6845 41.3086 76.2222 41.3086C75.7599 41.3086 75.3063 41.4965 74.9794 41.8236C74.6524 42.1506 74.4644 42.6041 74.4644 43.0664C74.4644 43.5287 74.6523 43.9822 74.9794 44.309C75.3063 44.636 75.7581 44.8242 76.2222 44.8242C76.6845 44.8242 77.138 44.6361 77.4648 44.309C77.7917 43.9822 77.98 43.5287 77.98 43.0664C77.98 42.6041 77.7919 42.1506 77.4648 41.8236Z" fill="#BE111F"/>
<path d="M80.4143 24.4336H58.9419C57.9712 24.4336 57.1841 25.2207 57.1841 26.1914C57.1841 27.1621 57.9711 27.9492 58.9419 27.9492H80.4143C81.3849 27.9492 82.1721 27.1621 82.1721 26.1914C82.1721 25.2207 81.3849 24.4336 80.4143 24.4336Z" fill="#BE111F"/>
<path d="M80.4143 32.8711H58.9419C57.9712 32.8711 57.1841 33.6582 57.1841 34.6289C57.1841 35.5996 57.9711 36.3867 58.9419 36.3867H80.4143C81.3849 36.3867 82.1721 35.5996 82.1721 34.6289C82.1721 33.6582 81.3849 32.8711 80.4143 32.8711Z" fill="#BE111F"/>
</svg>
