<svg width="30" height="22" viewBox="0 0 30 22" fill="none" xmlns="http://www.w3.org/2000/svg">
<path d="M18.9995 22.0001C17.8949 22.0003 16.9993 21.105 16.9991 20.0005C16.999 19.4699 17.2098 18.961 17.5851 18.5858L25.1717 10.9999L17.5851 3.41398C16.804 2.63288 16.8041 1.36641 17.5852 0.585375C18.3663 -0.195665 19.6328 -0.195603 20.4138 0.5855L29.4149 9.58568C30.1948 10.3672 30.1948 11.6326 29.4149 12.4142L20.4138 21.4143C20.0395 21.7906 19.5303 22.0015 18.9995 22.0001ZM18.9995 1.00024C18.4472 1.00036 17.9996 1.44822 17.9997 2.00046C17.9998 2.26539 18.105 2.51944 18.2922 2.70688L26.2325 10.6463C26.4278 10.8416 26.4278 11.1581 26.2325 11.3534L18.2922 19.2929C17.9017 19.6834 17.9017 20.3167 18.2923 20.7072C18.6828 21.0978 19.3161 21.0977 19.7066 20.7072L28.7077 11.7071C29.0982 11.3166 29.0983 10.6834 28.7078 10.2929C28.7078 10.2928 28.7078 10.2928 28.7077 10.2928L19.7066 1.2926C19.5192 1.10505 19.2647 0.9998 18.9995 1.00024Z" fill="white"/>
<path d="M10.4997 22.0001C9.39518 22.0003 8.49958 21.105 8.49939 20.0005C8.49926 19.4699 8.71007 18.961 9.08531 18.5858L16.672 10.9999L9.08531 3.41398C8.30427 2.63288 8.30433 1.36641 9.08544 0.585375C9.86654 -0.195665 11.133 -0.195603 11.914 0.5855L20.9151 9.58568C21.695 10.3672 21.695 11.6326 20.9151 12.4142L11.914 21.4143C11.5397 21.7906 11.0305 22.0015 10.4997 22.0001ZM10.4997 1.00024C9.94741 1.00036 9.49986 1.44822 9.49999 2.00046C9.50005 2.26539 9.60523 2.51944 9.79248 2.70688L17.7327 10.6463C17.928 10.8416 17.928 11.1581 17.7327 11.3534L9.79248 19.2929C9.40193 19.6834 9.40199 20.3167 9.79254 20.7072C10.1831 21.0978 10.8163 21.0977 11.2069 20.7072L20.2079 11.7071C20.5985 11.3166 20.5985 10.6834 20.208 10.2929C20.208 10.2928 20.208 10.2928 20.2079 10.2928L11.2069 1.2926C11.0194 1.10505 10.7649 0.9998 10.4997 1.00024Z" fill="white"/>
<path d="M2.00001 22.0001C1.46928 22.0015 0.959983 21.7907 0.585619 21.4144C-0.194296 20.6328 -0.194296 19.3674 0.585619 18.5859L8.17227 11L0.585619 3.414C-0.195421 2.6329 -0.195359 1.3665 0.585744 0.585398C1.36685 -0.195704 2.63331 -0.195579 3.41435 0.585523L12.4154 9.5857C13.1953 10.3672 13.1953 11.6326 12.4154 12.4142L3.41435 21.4143C3.04005 21.7906 2.53081 22.0015 2.00001 22.0001ZM1.29279 20.7072C1.6834 21.0977 2.31657 21.0977 2.70718 20.7072L11.7082 11.7071C12.0988 11.3166 12.0988 10.6834 11.7084 10.2929C11.7083 10.2929 11.7083 10.2929 11.7082 10.2928L2.70718 1.29263C2.31663 0.902076 1.6834 0.902013 1.29285 1.29256C0.902297 1.68312 0.902234 2.31635 1.29279 2.7069L9.23305 10.6464C9.4283 10.8416 9.4283 11.1582 9.23305 11.3535L1.29279 19.2929C0.90286 19.6837 0.90286 20.3164 1.29279 20.7072Z" fill="white"/>
</svg>
