<svg width="30" height="22" viewBox="0 0 30 22" fill="none" xmlns="http://www.w3.org/2000/svg">
<path d="M18.9994 22.0002C17.8949 22.0004 16.9993 21.1052 16.9991 20.0006C16.999 19.47 17.2098 18.9611 17.585 18.5859L25.1717 11L17.585 3.4141C16.804 2.633 16.8041 1.36654 17.5852 0.585497C18.3663 -0.195543 19.6327 -0.195481 20.4138 0.585622L29.4148 9.5858C30.1947 10.3673 30.1947 11.6327 29.4148 12.4143L20.4138 21.4144C20.0395 21.7907 19.5302 22.0016 18.9994 22.0002ZM18.9994 1.00036C18.4471 1.00048 17.9996 1.44835 17.9997 2.00058C17.9998 2.26551 18.105 2.51957 18.2922 2.707L26.2325 10.6465C26.4277 10.8417 26.4277 11.1583 26.2325 11.3536L18.2922 19.293C17.9017 19.6836 17.9017 20.3168 18.2923 20.7074C18.6828 21.0979 19.316 21.0978 19.7066 20.7073L28.7077 11.7072C29.0982 11.3167 29.0983 10.6835 28.7078 10.293C28.7077 10.293 28.7077 10.293 28.7077 10.2929L19.7066 1.29273C19.5192 1.10517 19.2647 0.999922 18.9994 1.00036Z" fill="black"/>
<path d="M10.4997 22.0002C9.39515 22.0004 8.49955 21.1052 8.49936 20.0006C8.49923 19.47 8.71004 18.9611 9.08528 18.5859L16.6719 11L9.08528 3.4141C8.30424 2.633 8.3043 1.36654 9.0854 0.585497C9.86651 -0.195543 11.133 -0.195481 11.914 0.585622L20.9151 9.5858C21.695 10.3673 21.695 11.6327 20.9151 12.4143L11.914 21.4144C11.5397 21.7907 11.0305 22.0016 10.4997 22.0002ZM10.4997 1.00036C9.94738 1.00048 9.49983 1.44835 9.49996 2.00058C9.50002 2.26551 9.6052 2.51957 9.79245 2.707L17.7327 10.6465C17.928 10.8417 17.928 11.1583 17.7327 11.3536L9.79245 19.293C9.4019 19.6836 9.40196 20.3168 9.79251 20.7074C10.1831 21.0979 10.8163 21.0978 11.2068 20.7073L20.2079 11.7072C20.5984 11.3167 20.5985 10.6835 20.208 10.293C20.208 10.293 20.208 10.293 20.2079 10.2929L11.2068 1.29273C11.0194 1.10517 10.7649 0.999922 10.4997 1.00036Z" fill="black"/>
<path d="M1.99998 22.0002C1.46925 22.0016 0.959952 21.7908 0.585588 21.4145C-0.194327 20.6329 -0.194327 19.3675 0.585588 18.586L8.17224 11.0001L0.585588 3.41412C-0.195452 2.63302 -0.195389 1.36662 0.585713 0.58552C1.36682 -0.195582 2.63328 -0.195457 3.41432 0.585645L12.4154 9.58582C13.1953 10.3674 13.1953 11.6328 12.4154 12.4143L3.41432 21.4144C3.04002 21.7907 2.53078 22.0016 1.99998 22.0002ZM1.29276 20.7073C1.68337 21.0978 2.31654 21.0978 2.70715 20.7073L11.7082 11.7072C12.0988 11.3167 12.0988 10.6835 11.7083 10.293C11.7083 10.293 11.7083 10.293 11.7082 10.2929L2.70715 1.29275C2.3166 0.902198 1.68337 0.902135 1.29282 1.29269C0.902266 1.68324 0.902204 2.31647 1.29276 2.70702L9.23302 10.6465C9.42827 10.8417 9.42827 11.1583 9.23302 11.3536L1.29276 19.293C0.902829 19.6838 0.902829 20.3166 1.29276 20.7073Z" fill="black"/>
</svg>
