<svg width="23" height="25" viewBox="0 0 23 25" fill="none" xmlns="http://www.w3.org/2000/svg">
<path d="M18.6875 3.57143H23V25H0V3.57143H4.3125V2.14286C4.3125 1.55714 4.52813 1.05714 4.945 0.628572C5.36188 0.214286 5.87937 0 6.46875 0C7.05813 0 7.57562 0.214286 7.9925 0.628572C8.40938 1.05714 8.625 1.55714 8.625 2.14286V3.57143H14.375V2.14286C14.375 1.55714 14.5906 1.05714 15.0075 0.628572C15.4244 0.214286 15.9419 0 16.5312 0C17.1206 0 17.6381 0.214286 18.055 0.628572C18.4719 1.05714 18.6875 1.55714 18.6875 2.14286V3.57143ZM5.75 2.14286V5.71429C5.74824 5.80857 5.76564 5.90223 5.80114 5.98968C5.83663 6.07713 5.88951 6.15657 5.95661 6.22325C6.0237 6.28993 6.10364 6.34247 6.19163 6.37775C6.27963 6.41303 6.37388 6.43032 6.46875 6.42857C6.56362 6.43032 6.65787 6.41303 6.74587 6.37775C6.83386 6.34247 6.9138 6.28993 6.98089 6.22325C7.04799 6.15657 7.10087 6.07713 7.13636 5.98968C7.17186 5.90223 7.18926 5.80857 7.1875 5.71429V2.14286C7.1875 1.94286 7.11562 1.77143 6.97187 1.64286C6.8425 1.5 6.67 1.42857 6.46875 1.42857C6.2675 1.42857 6.095 1.5 5.96563 1.64286C5.82188 1.77143 5.75 1.94286 5.75 2.14286ZM15.8125 2.14286V5.71429C15.8125 5.91429 15.8844 6.08571 16.0138 6.22857C16.1575 6.35714 16.33 6.42857 16.5312 6.42857C16.7325 6.42857 16.905 6.35714 17.0487 6.22857C17.1781 6.08571 17.25 5.91429 17.25 5.71429V2.14286C17.2518 2.04858 17.2344 1.95491 17.1989 1.86746C17.1634 1.78001 17.1105 1.70057 17.0434 1.6339C16.9763 1.56722 16.8964 1.51467 16.8084 1.47939C16.7204 1.44411 16.6261 1.42683 16.5312 1.42857C16.4364 1.42683 16.3421 1.44411 16.2541 1.47939C16.1661 1.51467 16.0862 1.56722 16.0191 1.6339C15.952 1.70057 15.8991 1.78001 15.8636 1.86746C15.8281 1.95491 15.8107 2.04858 15.8125 2.14286ZM21.5625 23.5714V9.28571H1.4375V23.5714H21.5625ZM7.1875 10.7143V13.5714H4.3125V10.7143H7.1875ZM10.0625 10.7143H12.9375V13.5714H10.0625V10.7143ZM15.8125 13.5714V10.7143H18.6875V13.5714H15.8125ZM7.1875 15V17.8571H4.3125V15H7.1875ZM10.0625 15H12.9375V17.8571H10.0625V15ZM15.8125 17.8571V15H18.6875V17.8571H15.8125ZM7.1875 19.2857V22.1429H4.3125V19.2857H7.1875ZM12.9375 22.1429H10.0625V19.2857H12.9375V22.1429ZM18.6875 22.1429H15.8125V19.2857H18.6875V22.1429Z" fill="white"/>
</svg>
