<svg width="14" height="14" viewBox="0 0 14 14" fill="none" xmlns="http://www.w3.org/2000/svg">
<path d="M6.99413 1.16663C3.77413 1.16663 1.16663 3.77996 1.16663 6.99996C1.16663 10.22 3.77413 12.8333 6.99413 12.8333C10.22 12.8333 12.8333 10.22 12.8333 6.99996C12.8333 3.77996 10.22 1.16663 6.99413 1.16663ZM6.99996 11.6666C4.42163 11.6666 2.33329 9.57829 2.33329 6.99996C2.33329 4.42163 4.42163 2.33329 6.99996 2.33329C9.57829 2.33329 11.6666 4.42163 11.6666 6.99996C11.6666 9.57829 9.57829 11.6666 6.99996 11.6666Z" fill="#BE111F"/>
<path d="M7.29163 4.08337H6.41663V7.58337L9.47913 9.42087L9.91663 8.70337L7.29163 7.14587V4.08337Z" fill="#BE111F"/>
</svg>
