<svg width="30" height="18" viewBox="0 0 30 18" fill="none" xmlns="http://www.w3.org/2000/svg">
<path d="M19.4961 8.99828C19.4961 11.3816 17.4795 13.3136 14.9919 13.3136C12.5043 13.3136 10.4877 11.3816 10.4877 8.99828C10.4877 6.61498 12.5043 4.68298 14.9919 4.68298C17.4795 4.68296 19.4961 6.61501 19.4961 8.99828ZM15 0.0131836C12.4244 0.0246086 9.75465 0.651634 7.2274 1.85211C5.35095 2.78016 3.52225 4.08951 1.93485 5.70563C1.1552 6.53061 0.160775 7.72516 0 8.99968C0.019 10.1037 1.20325 11.4664 1.93485 12.2938C3.42342 13.8464 5.2045 15.1192 7.2274 16.1482C9.58418 17.292 12.1928 17.9505 15 17.9872C17.5781 17.9756 20.2472 17.3413 22.7717 16.1482C24.6481 15.2202 26.4777 13.9099 28.0651 12.2938C28.8448 11.4688 29.8392 10.2742 30 8.99968C29.981 7.89566 28.7967 6.53291 28.0651 5.70558C26.5766 4.15293 24.7946 2.88111 22.7717 1.85206C20.4161 0.709158 17.8011 0.0551586 15 0.0131836ZM14.9981 2.24438C18.9011 2.24438 22.065 5.26923 22.065 9.00066C22.065 12.7321 18.9011 15.7569 14.9981 15.7569C11.0951 15.7569 7.93122 12.732 7.93122 9.00066C7.93122 5.26923 11.0951 2.24438 14.9981 2.24438Z" fill="white"/>
</svg>
