<svg width="25" height="25" viewBox="0 0 25 25" fill="none" xmlns="http://www.w3.org/2000/svg">
<path d="M20.829 3.68271H17.5419C14.9832 3.68271 12.9015 5.76439 12.9015 8.3231V11.0973H10.3003C10.0307 11.0973 9.81197 11.3159 9.81197 11.5856V15.3423C9.81197 15.612 10.0307 15.8306 10.3003 15.8306H12.9015V24.0234H1.46484C1.19553 24.0234 0.976562 23.8045 0.976562 23.5352V1.46484C0.976562 1.19553 1.19553 0.976562 1.46484 0.976562H2.44141C2.71111 0.976562 2.92969 0.75798 2.92969 0.488281C2.92969 0.218582 2.71111 0 2.44141 0H1.46484C0.657082 0 0 0.657082 0 1.46484V23.5352C0 24.3429 0.657082 25 1.46484 25H13.3898C13.6595 25 13.8781 24.7814 13.8781 24.5117V15.3423C13.8781 15.0726 13.6595 14.854 13.3898 14.854H10.7887V12.0737H13.3898C13.6595 12.0737 13.8781 11.8551 13.8781 11.5854V8.3231C13.8781 6.30283 15.5216 4.65908 17.5421 4.65908H20.3409V7.43923H17.5421C17.063 7.43923 16.6582 7.84397 16.6582 8.3231V11.5854C16.6582 11.8551 16.8768 12.0737 17.1465 12.0737H20.2724L19.9066 14.854H17.1465C16.877 14.854 16.6582 15.0726 16.6582 15.3423V24.5117C16.6582 24.7814 16.877 25 17.1465 25H18.6523C18.922 25 19.1406 24.7814 19.1406 24.5117C19.1406 24.242 18.922 24.0234 18.6523 24.0234H17.6348V15.8306H20.3348C20.5799 15.8306 20.787 15.6488 20.8189 15.406L21.3133 11.6491C21.3316 11.5099 21.2891 11.3693 21.1964 11.2637C21.1037 11.1578 20.9698 11.0973 20.8292 11.0973H17.635V8.41599H20.8292C21.0989 8.41599 21.3175 8.1974 21.3175 7.9277V4.17099C21.3173 3.90129 21.0987 3.68271 20.829 3.68271Z" fill="#E02F3D"/>
<path d="M23.5352 0H6.34766C6.07796 0 5.85938 0.218582 5.85938 0.488281C5.85938 0.75798 6.07796 0.976562 6.34766 0.976562H23.5352C23.8045 0.976562 24.0234 1.19553 24.0234 1.46484V23.5352C24.0234 23.8045 23.8045 24.0234 23.5352 24.0234H22.5586C22.2889 24.0234 22.0703 24.242 22.0703 24.5117C22.0703 24.7814 22.2889 25 22.5586 25H23.5352C24.3429 25 25 24.3429 25 23.5352V1.46484C25 0.657082 24.3429 0 23.5352 0Z" fill="#E02F3D"/>
<path d="M20.6057 24.0234H20.6053C20.3356 24.0234 20.1172 24.242 20.1172 24.5117C20.1172 24.7814 20.336 25 20.6057 25C20.8754 25 21.0939 24.7814 21.0939 24.5117C21.0939 24.242 20.8754 24.0234 20.6057 24.0234Z" fill="#E02F3D"/>
<path d="M4.39472 0.976562C4.66442 0.976562 4.883 0.75798 4.883 0.488281C4.883 0.218582 4.66442 0 4.39472 0H4.39434C4.12464 0 3.90625 0.218582 3.90625 0.488281C3.90625 0.75798 4.12502 0.976562 4.39472 0.976562Z" fill="#E02F3D"/>
</svg>
