<svg width="26" height="26" viewBox="0 0 26 26" fill="none" xmlns="http://www.w3.org/2000/svg">
<path d="M23.7656 5.6875H21.125V21.125C21.125 21.556 21.2962 21.9693 21.601 22.274C21.9057 22.5788 22.319 22.75 22.75 22.75C23.181 22.75 23.5943 22.5788 23.899 22.274C24.2038 21.9693 24.375 21.556 24.375 21.125V6.29688C24.375 6.13526 24.3108 5.98026 24.1965 5.86598C24.0822 5.7517 23.9272 5.6875 23.7656 5.6875Z" fill="white"/>
<path d="M21.8943 24.2607C21.207 24.0722 20.6006 23.6633 20.1681 23.0969C19.7355 22.5304 19.5008 21.8377 19.5 21.125V2.23438C19.5 2.07276 19.4358 1.91776 19.3215 1.80348C19.2072 1.6892 19.0522 1.625 18.8906 1.625H2.23438C2.07276 1.625 1.91776 1.6892 1.80348 1.80348C1.6892 1.91776 1.625 2.07276 1.625 2.23438V21.5312C1.625 22.2855 1.92461 23.0088 2.45792 23.5421C2.99122 24.0754 3.71454 24.375 4.46875 24.375H21.8791C21.8935 24.3756 21.9076 24.3707 21.9186 24.3614C21.9296 24.3521 21.9368 24.3391 21.9387 24.3248C21.9406 24.3105 21.9371 24.296 21.9289 24.2842C21.9207 24.2723 21.9084 24.264 21.8943 24.2607ZM4.875 10.5625V5.6875H9.75V10.5625H4.875ZM16.25 20.3125H4.875V18.6875H16.25V20.3125ZM16.25 17.0625H4.875V15.4375H16.25V17.0625ZM16.25 13.8125H4.875V12.1875H16.25V13.8125ZM16.25 10.5625H11.375V8.9375H16.25V10.5625ZM16.25 7.3125H11.375V5.6875H16.25V7.3125Z" fill="white"/>
</svg>
