<svg width="25" height="26" viewBox="0 0 25 26" fill="none" xmlns="http://www.w3.org/2000/svg">
<path d="M18.6523 0H11.5234C11.2537 0 11.0352 0.227325 11.0352 0.507812C11.0352 0.7883 11.2537 1.01562 11.5234 1.01562H18.6523C21.6139 1.01562 24.0234 3.52136 24.0234 6.60156V19.3984C24.0234 22.4786 21.6139 24.9844 18.6523 24.9844H6.34766C3.38612 24.9844 0.976562 22.4786 0.976562 19.3984V6.60156C0.976562 3.52136 3.38612 1.01562 6.34766 1.01562H7.61719C7.88689 1.01562 8.10547 0.7883 8.10547 0.507812C8.10547 0.227325 7.88689 0 7.61719 0H6.34766C2.84748 0 0 2.96138 0 6.60156V19.3984C0 23.0386 2.84748 26 6.34766 26H18.6523C22.1525 26 25 23.0386 25 19.3984V6.60156C25 2.96138 22.1525 0 18.6523 0Z" fill="#E02F3D"/>
<path d="M17.8711 13C17.8711 9.92 15.4615 7.41406 12.5 7.41406C9.53846 7.41406 7.12891 9.92 7.12891 13C7.12891 16.08 9.53846 18.5859 12.5 18.5859C15.4615 18.5859 17.8711 16.08 17.8711 13ZM12.5 17.5703C10.0769 17.5703 8.10547 15.52 8.10547 13C8.10547 10.48 10.0769 8.42969 12.5 8.42969C14.9231 8.42969 16.8945 10.48 16.8945 13C16.8945 15.52 14.9231 17.5703 12.5 17.5703Z" fill="#E02F3D"/>
<path d="M12.5 9.44531C10.6153 9.44531 9.08203 11.04 9.08203 13C9.08203 14.96 10.6153 16.5547 12.5 16.5547C14.3847 16.5547 15.918 14.96 15.918 13C15.918 11.04 14.3847 9.44531 12.5 9.44531ZM12.5 15.5391C11.1538 15.5391 10.0586 14.4001 10.0586 13C10.0586 11.5999 11.1538 10.4609 12.5 10.4609C13.8462 10.4609 14.9414 11.5999 14.9414 13C14.9414 14.4001 13.8462 15.5391 12.5 15.5391Z" fill="#E02F3D"/>
<path d="M20.6055 6.60181C20.6055 5.48164 19.7292 4.57056 18.6523 4.57056C17.5753 4.57056 16.6992 5.48164 16.6992 6.60181C16.6992 7.72177 17.5753 8.63306 18.6523 8.63306C19.7292 8.63306 20.6055 7.72177 20.6055 6.60181ZM17.6758 6.60181C17.6758 6.04163 18.1139 5.58618 18.6523 5.58618C19.1908 5.58618 19.6289 6.04163 19.6289 6.60181C19.6289 7.16179 19.1908 7.61743 18.6523 7.61743C18.1139 7.61743 17.6758 7.16179 17.6758 6.60181Z" fill="#E02F3D"/>
<path d="M9.5705 1.01562C9.8402 1.01562 10.0588 0.7883 10.0588 0.507812C10.0588 0.227325 9.8402 0 9.5705 0H9.57012C9.30061 0 9.08203 0.227325 9.08203 0.507812C9.08203 0.7883 9.3008 1.01562 9.5705 1.01562Z" fill="#E02F3D"/>
</svg>
