<svg width="20" height="20" viewBox="0 0 20 20" fill="none" xmlns="http://www.w3.org/2000/svg">
<path d="M10.2933 9.34428H9.26069C9.14843 9.34428 9.04492 9.40505 8.99014 9.50355L8.81489 9.81845L8.63932 9.50355C8.58424 9.40505 8.48104 9.34428 8.36877 9.34428H7.03105C6.91878 9.34428 6.81527 9.40505 6.76049 9.50355L6.58524 9.81845L6.40999 9.50355C6.35521 9.40505 6.2517 9.34428 6.13944 9.34428H5.34653C5.27239 9.34428 5.20095 9.37104 5.1447 9.41936L3.9063 10.4865C3.84246 10.5415 3.80341 10.6209 3.79884 10.7053C3.79404 10.7901 3.82394 10.8728 3.88143 10.9348L4.62444 11.7351C4.68317 11.7982 4.76514 11.8341 4.85114 11.8341H10.2966C10.7661 12.7821 11.7227 13.3836 12.7889 13.3836C14.3252 13.3836 15.5748 12.1286 15.5748 10.5858C15.5748 9.043 14.3252 7.78809 12.7889 7.78809C11.7194 7.78809 10.7615 8.39236 10.2933 9.34428ZM14.955 10.5859C14.955 11.7852 13.9832 12.7612 12.7889 12.7612C11.9049 12.7612 11.1174 12.229 10.7833 11.4056C10.7358 11.2883 10.6223 11.2117 10.4964 11.2117H4.9858L4.5551 10.7476L5.46127 9.96675H5.95791L6.31469 10.6077C6.42424 10.8047 6.74624 10.8047 6.85579 10.6077L7.21258 9.96675H8.18709L8.54418 10.6077C8.65435 10.8047 8.97573 10.8041 9.08528 10.6077L9.44207 9.96675H10.4937C10.62 9.96675 10.7338 9.88988 10.781 9.77223C11.1141 8.94488 11.9022 8.41056 12.7889 8.41056C13.9832 8.41056 14.955 9.38653 14.955 10.5859Z" fill="black"/>
<path d="M12.125 10.5861C12.125 11.2147 12.6343 11.7262 13.2602 11.7262C13.8861 11.7262 14.3954 11.2147 14.3954 10.5861C14.3954 9.95757 13.8861 9.44604 13.2602 9.44604C12.6343 9.44604 12.125 9.95757 12.125 10.5861ZM13.2602 10.0685C13.5444 10.0685 13.7756 10.3007 13.7756 10.5861C13.7756 10.8715 13.5444 11.1037 13.2602 11.1037C12.976 11.1037 12.7448 10.8715 12.7448 10.5861C12.7448 10.3007 12.976 10.0685 13.2602 10.0685Z" fill="black"/>
<path d="M18.9872 2.87216V2.18603C18.9872 1.1563 18.153 0.318604 17.1277 0.318604C16.1024 0.318604 15.2683 1.1563 15.2683 2.18603V2.87216C14.9073 3.00856 14.6484 3.35605 14.6484 3.76557V4.08318H1.65616C1.48486 4.08318 1.34625 4.22239 1.34625 4.39442V15.8805H0.702488C0.531185 15.8805 0.392578 16.0197 0.392578 16.1917C0.392578 17.5647 1.50477 18.6817 2.87186 18.6817H16.5079C17.875 18.6817 18.9872 17.5647 18.9872 16.1917C18.9872 16.0197 18.8486 15.8805 18.6773 15.8805H18.0378V7.78832H18.6539C19.1793 7.78832 19.607 7.35881 19.607 6.83118V3.76564C19.607 3.35613 19.3481 3.00856 18.9872 2.87216ZM15.8881 2.18603C15.8881 1.49944 16.4441 0.94108 17.1277 0.94108C17.8114 0.94108 18.3674 1.49944 18.3674 2.18603V2.80851H15.8881V2.18603ZM15.6015 7.78832H16.5079V14.9468H2.87186V5.60965H14.6484V6.83118C14.6484 7.35881 15.0761 7.78832 15.6015 7.78832ZM16.5079 18.0592H2.87186C1.95212 18.0592 1.1861 17.385 1.03812 16.503H7.60162C8.00505 17.0832 8.67058 17.4367 9.37997 17.4367H9.99979C10.7092 17.4367 11.3747 17.0832 11.7781 16.503H18.3416C18.1936 17.385 17.4276 18.0592 16.5079 18.0592ZM17.4179 15.8805H11.6084C11.4979 15.8805 11.3956 15.9398 11.3402 16.0358C11.0636 16.5161 10.55 16.8142 9.99979 16.8142H9.37997C8.82972 16.8142 8.3162 16.5161 8.03953 16.0358C7.98413 15.9398 7.88186 15.8805 7.77138 15.8805H1.96599V4.70574H14.6484V4.98717H2.56195C2.39064 4.98717 2.25204 5.12638 2.25204 5.29841V15.258C2.25204 15.4301 2.39064 15.5693 2.56195 15.5693H16.8178C16.9891 15.5693 17.1277 15.4301 17.1277 15.258V7.78832H17.4179V15.8805ZM18.9872 6.83118C18.9872 7.01567 18.8376 7.16584 18.6539 7.16584H15.6015C15.4178 7.16584 15.2683 7.01567 15.2683 6.83118V3.76564C15.2683 3.58116 15.4178 3.43098 15.6015 3.43098H18.6539C18.8376 3.43098 18.9872 3.58116 18.9872 3.76564V6.83118Z" fill="black"/>
<path d="M17.1277 4.16455C16.8463 4.16455 16.6182 4.3937 16.6182 4.6763C16.6182 4.84126 16.6972 4.98637 16.8178 5.07998V6.23249C16.8178 6.40453 16.9564 6.54373 17.1277 6.54373C17.299 6.54373 17.4376 6.40453 17.4376 6.23249V5.07998C17.5583 4.98637 17.6373 4.84126 17.6373 4.6763C17.6373 4.39362 17.4092 4.16455 17.1277 4.16455Z" fill="black"/>
</svg>
