<svg width="129" height="76" viewBox="0 0 129 76" fill="none" xmlns="http://www.w3.org/2000/svg">
<path d="M12.2331 14.3291H0.0203857V24.9713H12.2331V14.3291Z" fill="black"/>
<path d="M12.2339 29.0916H0.0212402V61.6723H12.2339V29.0916Z" fill="black"/>
<path d="M32.9525 14.3276H20.7399V24.9698H32.9525V14.3276Z" fill="#BE111F"/>
<path d="M32.9533 29.0908H20.7406V61.6716H32.9533V29.0908Z" fill="#BE111F"/>
<path d="M64.2713 29.0908H52.0587V61.6716H64.2713V29.0908Z" fill="#BE111F"/>
<path d="M38.7774 14.3276V24.9698H48.5257H52.0587H64.2714H67.7171H77.4654V14.3276H38.7774Z" fill="#BE111F"/>
<path d="M121.669 20.7173C116.914 16.4648 110.743 14.3276 103.175 14.3276H83.286V24.9698H95.4987H98.7045H103.241C107.406 24.9698 110.634 26.1692 112.902 28.5899C115.17 31.0105 116.304 34.1291 116.304 37.9672C116.304 41.6091 115.126 44.7058 112.749 47.2355C110.372 49.7652 107.188 51.03 103.175 51.03H95.4987V29.0915H83.286V61.6722H103.241C110.765 61.6722 116.914 59.5351 121.669 55.2389C126.423 50.9646 128.8 45.1856 128.8 37.9454C128.8 30.7052 126.423 24.9698 121.669 20.7173Z" fill="black"/>
<path d="M0.588828 6.93642H0V0.110596H0.588828V6.93642Z" fill="black"/>
<path d="M14.5006 6.93471H13.9118L9.61556 1.06843V6.93471H9.02673V0.108887H9.61556L13.89 5.88794V0.108887H14.4788V6.93471H14.5006Z" fill="black"/>
<path d="M25.2747 6.93487H24.6858V0.654245H22.4614V0.130859H27.5209V0.654245H25.2965V6.93487H25.2747Z" fill="black"/>
<path d="M39.779 6.93471H35.4609V0.108887H39.779V0.632273H36.028V3.16197H39.6918V3.68536H36.028V6.38952H39.779V6.93471Z" fill="black"/>
<path d="M51.8596 6.93471H47.9777V0.108887H48.5665V6.38952H51.8596V6.93471Z" fill="black"/>
<path d="M63.7464 6.93471H59.8645V0.108887H60.4533V6.38952H63.7464V6.93471Z" fill="black"/>
<path d="M72.3606 6.93471H71.7717V0.108887H72.3606V6.93471Z" fill="black"/>
<path d="M84.0053 7.0657C83.0239 7.0657 82.217 6.73858 81.541 6.08435C80.8867 5.43012 80.5378 4.57962 80.5378 3.53285C80.5378 2.48608 80.8649 1.65739 81.541 0.981347C82.1952 0.327116 83.0239 0 84.0053 0C85.0521 0 85.9026 0.392538 86.5787 1.15581L86.1425 1.48292C85.9026 1.19942 85.5973 0.959539 85.2266 0.785077C84.8558 0.610615 84.4633 0.523385 84.0271 0.523385C83.2202 0.523385 82.5442 0.806886 81.9989 1.35208C81.4537 1.91908 81.192 2.63873 81.192 3.51104C81.192 4.38335 81.4537 5.103 81.9989 5.67C82.5442 6.237 83.2202 6.5205 84.0271 6.5205C84.4415 6.5205 84.834 6.43327 85.183 6.28062C85.5319 6.12796 85.8154 5.9317 86.0335 5.69181V4.05623H83.4601V3.53285H86.6223V5.90989C85.9026 6.67316 85.0521 7.0657 84.0053 7.0657Z" fill="black"/>
<path d="M99.1404 6.93471H94.8223V0.108887H99.1404V0.632273H95.3893V3.16197H99.0531V3.68536H95.3893V6.38952H99.1404V6.93471Z" fill="black"/>
<path d="M112.771 6.93471H112.204L107.908 1.06843V6.93471H107.319V0.108887H107.908L112.182 5.88794V0.108887H112.771V6.93471Z" fill="black"/>
<path d="M123.566 6.93487H122.955V0.654245H120.731V0.130859H125.79V0.654245H123.566V6.93487Z" fill="black"/>
<path d="M0.588828 75.8688H0V69.043H0.588828V75.8688Z" fill="black"/>
<path d="M8.32945 75.8687H7.74063V69.5881H5.51617V69.0647H10.5757V69.5881H8.35126V75.8687H8.32945Z" fill="black"/>
<path d="M23.9895 75.8688H21.8087V69.043H23.9895C25.0145 69.043 25.8432 69.3701 26.4757 70.0243C27.1081 70.6785 27.4352 71.4854 27.4352 72.445C27.4352 73.4045 27.1299 74.2332 26.4975 74.8656C25.865 75.5417 25.0363 75.8688 23.9895 75.8688ZM23.9895 75.3454C24.8618 75.3454 25.5597 75.0837 26.0613 74.5385C26.5629 73.9933 26.8246 73.3173 26.8246 72.4886C26.8246 71.6599 26.5629 70.9839 26.0613 70.4387C25.5597 69.8935 24.8618 69.61 23.9895 69.61H22.3975V75.3672H23.9895V75.3454Z" fill="black"/>
<path d="M33.1693 75.8688H32.5804V69.043H33.1693V75.8688Z" fill="black"/>
<path d="M40.6939 75.9996C39.6252 75.9996 38.7965 75.6289 38.2077 74.9092L38.5784 74.4731C39.1455 75.1273 39.8433 75.4544 40.7157 75.4544C41.3481 75.4544 41.8061 75.3236 42.0896 75.0401C42.3731 74.7566 42.5039 74.4513 42.5039 74.1024C42.5039 73.8407 42.4385 73.6008 42.2859 73.4045C42.1332 73.2082 41.9369 73.0774 41.697 72.9683C41.4571 72.8593 41.1954 72.7721 40.8901 72.6848C40.6066 72.5976 40.3013 72.5104 40.0178 72.4232C39.7343 72.3359 39.4726 72.2269 39.2109 72.096C38.971 71.9652 38.7747 71.7907 38.6221 71.5727C38.4694 71.3546 38.404 71.0711 38.404 70.744C38.404 70.1988 38.6221 69.7626 39.0582 69.4137C39.4944 69.0866 40.0178 68.9121 40.6502 68.9121C41.6316 68.9121 42.3949 69.2392 42.9619 69.8716L42.5694 70.3078C42.0896 69.7408 41.4353 69.4573 40.6066 69.4573C40.1486 69.4573 39.7779 69.5663 39.4726 69.8062C39.1673 70.0461 39.0146 70.3514 39.0146 70.7003C39.0146 70.9402 39.08 71.1365 39.2327 71.2891C39.3854 71.4636 39.5816 71.5945 39.8215 71.6817C40.0614 71.7689 40.3231 71.8562 40.6284 71.9434C40.9119 72.0306 41.2173 72.1178 41.5008 72.2051C41.7843 72.3141 42.046 72.4232 42.3077 72.554C42.5476 72.6848 42.7438 72.8811 42.8965 73.121C43.0492 73.3609 43.1146 73.6662 43.1146 74.0151C43.1146 74.5385 42.9183 74.9747 42.5258 75.3672C42.1332 75.8034 41.5226 75.9996 40.6939 75.9996Z" fill="black"/>
<path d="M50.51 75.8687H49.9212V69.5881H47.6967V69.0647H52.7344V69.5881H50.51V75.8687Z" fill="black"/>
<path d="M62.3496 75.8688H61.6518L59.7326 73.0556H58.2279V75.8688H57.639V69.043H60.1906C60.8012 69.043 61.281 69.2174 61.6736 69.5882C62.0661 69.9589 62.2624 70.4387 62.2624 71.0493C62.2624 71.6381 62.0879 72.1179 61.7172 72.4668C61.3465 72.8157 60.9103 72.9902 60.3651 73.012L62.3496 75.8688ZM60.147 72.5322C60.605 72.5322 60.9539 72.4014 61.2374 72.1179C61.5209 71.8344 61.6518 71.4854 61.6518 71.0493C61.6518 70.6131 61.5209 70.2642 61.2374 70.0025C60.9539 69.7408 60.5832 69.5882 60.147 69.5882H58.2279V72.5322H60.147Z" fill="black"/>
<path d="M68.0001 75.8688H67.4113V69.043H68.0001V75.8688Z" fill="black"/>
<path d="M76.2649 75.8688H73.408V69.043H76.1994C76.7665 69.043 77.2244 69.1956 77.5734 69.5227C77.9223 69.828 78.075 70.2642 78.075 70.7876C78.075 71.2019 77.9659 71.5509 77.726 71.8344C77.4861 72.1179 77.2026 72.2923 76.8755 72.3577C77.2462 72.4014 77.5515 72.5976 77.8133 72.9466C78.075 73.2737 78.2058 73.6444 78.2058 74.0369C78.2058 74.6039 78.0313 75.0401 77.6824 75.389C77.3553 75.7161 76.8755 75.8688 76.2649 75.8688ZM76.134 72.1179C76.5484 72.1179 76.8755 72.0088 77.1154 71.7689C77.3553 71.529 77.4643 71.2237 77.4643 70.853C77.4643 70.4823 77.3553 70.1988 77.1154 69.9589C76.8755 69.719 76.5484 69.5882 76.134 69.5882H73.9968V72.1179H76.134ZM76.1776 75.3454C76.6356 75.3454 76.9845 75.2146 77.2244 74.9747C77.4861 74.7348 77.5952 74.4077 77.5952 73.9933C77.5952 73.6226 77.4643 73.2955 77.2244 73.0338C76.9845 72.7721 76.6138 72.6412 76.1776 72.6412H73.9968V75.3454H76.1776Z" fill="black"/>
<path d="M86.0335 75.9996C85.183 75.9996 84.507 75.7597 84.049 75.2582C83.591 74.7784 83.3729 74.1024 83.3729 73.2519V69.043H83.9618V73.2301C83.9618 73.9279 84.1362 74.4731 84.507 74.8656C84.8559 75.2582 85.3793 75.4544 86.0335 75.4544C86.7096 75.4544 87.2112 75.2582 87.5601 74.8656C87.9091 74.4731 88.0835 73.9279 88.0835 73.2301V69.043H88.6724V73.2519C88.6724 74.1024 88.4543 74.7784 87.9963 75.2582C87.5601 75.7597 86.9059 75.9996 86.0335 75.9996Z" fill="black"/>
<path d="M96.4345 75.8687H95.8457V69.5881H93.6212V69.0647H98.6808V69.5881H96.4563V75.8687H96.4345Z" fill="black"/>
<path d="M104.157 75.8688H103.568V69.043H104.157V75.8688Z" fill="black"/>
<path d="M112.598 75.9995C111.617 75.9995 110.81 75.6724 110.2 74.9964C109.589 74.3203 109.284 73.4917 109.284 72.4667C109.284 71.4417 109.589 70.613 110.2 69.937C110.81 69.261 111.617 68.9338 112.598 68.9338C113.58 68.9338 114.387 69.261 114.997 69.937C115.608 70.613 115.913 71.4417 115.913 72.4667C115.913 73.4917 115.608 74.3203 114.997 74.9964C114.387 75.6724 113.58 75.9995 112.598 75.9995ZM112.598 75.4762C113.405 75.4762 114.06 75.1927 114.561 74.6257C115.063 74.0587 115.303 73.339 115.303 72.4667C115.303 71.5944 115.063 70.8747 114.561 70.3077C114.06 69.7407 113.405 69.479 112.598 69.479C111.77 69.479 111.116 69.7625 110.636 70.3077C110.134 70.8747 109.894 71.5944 109.894 72.4667C109.894 73.339 110.134 74.0587 110.636 74.6257C111.137 75.1927 111.792 75.4762 112.598 75.4762Z" fill="black"/>
<path d="M126.511 75.8687H125.944L121.648 70.0242V75.8905H121.059V69.0647H121.648L125.923 74.8437V69.0647H126.511V75.8687Z" fill="black"/>
</svg>
