<svg width="261" height="154" viewBox="0 0 261 154" fill="none" xmlns="http://www.w3.org/2000/svg">
<path d="M24.6929 28.9241H0.0397949V50.4069H24.6929V28.9241Z" fill="black"/>
<path d="M24.6936 58.725H0.0405273V124.494H24.6936V58.725Z" fill="black"/>
<path d="M66.5173 28.9219H41.8643V50.4046H66.5173V28.9219Z" fill="#BE111F"/>
<path d="M66.5173 58.7248H41.8643V124.494H66.5173V58.7248Z" fill="#BE111F"/>
<path d="M129.743 58.7232H105.09V124.492H129.743V58.7232Z" fill="#BE111F"/>
<path d="M78.2786 28.9219V50.4046H97.957H105.089H129.742H136.697H156.376V28.9219H78.2786Z" fill="#BE111F"/>
<path d="M245.606 41.8203C236.008 33.236 223.55 28.9219 208.274 28.9219H168.125V50.4046H192.778H199.249H208.406C216.814 50.4046 223.33 52.8258 227.908 57.7123C232.487 62.5987 234.776 68.8939 234.776 76.6418C234.776 83.9934 232.399 90.2446 227.6 95.3511C222.802 100.458 216.374 103.011 208.274 103.011H192.778V58.7248H168.125V124.494H208.406C223.594 124.494 236.008 120.18 245.606 111.507C255.203 102.879 260.001 91.2131 260.001 76.5977C260.001 61.9824 255.203 50.4046 245.606 41.8203Z" fill="black"/>
<path d="M1.18863 14.0018H0V0.22287H1.18863V14.0018Z" fill="black"/>
<path d="M29.2738 13.9978H28.0852L19.4126 2.15586V13.9978H18.2239V0.218887H19.4126L28.0411 11.8847V0.218887H29.2298V13.9978H29.2738Z" fill="black"/>
<path d="M51.0191 13.9991H49.8305V1.32078H45.3401V0.264252H55.5535V1.32078H51.0631V13.9991H51.0191Z" fill="black"/>
<path d="M80.299 13.9978H71.5823V0.218887H80.299V1.27542H72.7269V6.38198H80.1229V7.43851H72.7269V12.8973H80.299V13.9978Z" fill="black"/>
<path d="M104.688 13.9978H96.8519V0.218887H98.0406V12.8973H104.688V13.9978Z" fill="black"/>
<path d="M128.683 13.9978H120.846V0.218887H122.035V12.8973H128.683V13.9978Z" fill="black"/>
<path d="M146.069 13.9978H144.881V0.218887H146.069V13.9978Z" fill="black"/>
<path d="M169.576 14.2631C167.595 14.2631 165.966 13.6028 164.601 12.2821C163.28 10.9615 162.576 9.24462 162.576 7.13157C162.576 5.01851 163.236 3.34567 164.601 1.98099C165.922 0.66033 167.595 0 169.576 0C171.689 0 173.406 0.792394 174.771 2.33316L173.89 2.99349C173.406 2.42121 172.79 1.93697 172.041 1.58479C171.293 1.23262 170.5 1.05653 169.62 1.05653C167.991 1.05653 166.626 1.62882 165.526 2.72937C164.425 3.87394 163.897 5.32666 163.897 7.08754C163.897 8.84842 164.425 10.3011 165.526 11.4457C166.626 12.5903 167.991 13.1626 169.62 13.1626C170.456 13.1626 171.249 12.9865 171.953 12.6783C172.657 12.3702 173.23 11.974 173.67 11.4897V8.18809H168.475V7.13157H174.859V11.93C173.406 13.4707 171.689 14.2631 169.576 14.2631Z" fill="black"/>
<path d="M200.13 13.9978H191.413V0.218887H200.13V1.27542H192.558V6.38198H199.954V7.43851H192.558V12.8973H200.13V13.9978Z" fill="black"/>
<path d="M227.644 13.9978H226.499L217.827 2.15586V13.9978H216.638V0.218887H217.827L226.455 11.8847V0.218887H227.644V13.9978Z" fill="black"/>
<path d="M249.434 13.9991H248.202V1.32078H243.711V0.264252H253.925V1.32078H249.434V13.9991Z" fill="black"/>
<path d="M1.18863 153.152H0V139.373H1.18863V153.152Z" fill="black"/>
<path d="M16.8143 153.152H15.6256V140.473H11.1353V139.417H21.3487V140.473H16.8583V153.152H16.8143Z" fill="black"/>
<path d="M48.426 153.152H44.0236V139.373H48.426C50.4951 139.373 52.168 140.033 53.4446 141.354C54.7213 142.675 55.3817 144.303 55.3817 146.24C55.3817 148.177 54.7653 149.85 53.4887 151.127C52.212 152.492 50.5391 153.152 48.426 153.152ZM48.426 152.095C50.1869 152.095 51.5956 151.567 52.6082 150.466C53.6207 149.366 54.149 148.001 54.149 146.328C54.149 144.656 53.6207 143.291 52.6082 142.19C51.5956 141.09 50.1869 140.518 48.426 140.518H45.2123V152.139H48.426V152.095Z" fill="black"/>
<path d="M66.9558 153.152H65.7672V139.373H66.9558V153.152Z" fill="black"/>
<path d="M82.1455 153.416C79.9884 153.416 78.3155 152.667 77.1269 151.215L77.8753 150.334C79.0199 151.655 80.4286 152.315 82.1896 152.315C83.4662 152.315 84.3907 152.051 84.963 151.479C85.5353 150.907 85.7995 150.29 85.7995 149.586C85.7995 149.058 85.6674 148.573 85.3592 148.177C85.0511 147.781 84.6549 147.517 84.1706 147.297C83.6864 147.077 83.1581 146.901 82.5418 146.724C81.9695 146.548 81.3531 146.372 80.7808 146.196C80.2085 146.02 79.6802 145.8 79.152 145.536C78.6677 145.272 78.2715 144.92 77.9633 144.479C77.6552 144.039 77.5231 143.467 77.5231 142.807C77.5231 141.706 77.9633 140.826 78.8438 140.121C79.7243 139.461 80.7808 139.109 82.0575 139.109C84.0386 139.109 85.5794 139.769 86.724 141.046L85.9315 141.926C84.963 140.782 83.6423 140.209 81.9695 140.209C81.045 140.209 80.2966 140.429 79.6802 140.914C79.0639 141.398 78.7558 142.014 78.7558 142.718C78.7558 143.203 78.8878 143.599 79.196 143.907C79.5042 144.259 79.9004 144.523 80.3846 144.699C80.8689 144.876 81.3972 145.052 82.0135 145.228C82.5858 145.404 83.2021 145.58 83.7744 145.756C84.3467 145.976 84.875 146.196 85.4033 146.46C85.8875 146.724 86.2837 147.121 86.5919 147.605C86.9001 148.089 87.0321 148.705 87.0321 149.41C87.0321 150.466 86.6359 151.347 85.8435 152.139C85.0511 153.02 83.8184 153.416 82.1455 153.416Z" fill="black"/>
<path d="M101.963 153.152H100.774V140.473H96.2836V139.417H106.453V140.473H101.963V153.152Z" fill="black"/>
<path d="M125.862 153.152H124.453L120.579 147.473H117.541V153.152H116.353V139.373H121.503C122.736 139.373 123.704 139.725 124.497 140.473C125.289 141.222 125.685 142.19 125.685 143.423C125.685 144.612 125.333 145.58 124.585 146.284C123.836 146.989 122.956 147.341 121.855 147.385L125.862 153.152ZM121.415 146.416C122.34 146.416 123.044 146.152 123.616 145.58C124.189 145.008 124.453 144.303 124.453 143.423C124.453 142.543 124.189 141.838 123.616 141.31C123.044 140.782 122.296 140.473 121.415 140.473H117.541V146.416H121.415Z" fill="black"/>
<path d="M137.269 153.152H136.081V139.373H137.269V153.152Z" fill="black"/>
<path d="M153.953 153.152H148.185V139.373H153.82C154.965 139.373 155.89 139.681 156.594 140.341C157.298 140.958 157.606 141.838 157.606 142.895C157.606 143.731 157.386 144.435 156.902 145.008C156.418 145.58 155.846 145.932 155.185 146.064C155.934 146.152 156.55 146.549 157.078 147.253C157.606 147.913 157.871 148.662 157.871 149.454C157.871 150.599 157.518 151.479 156.814 152.183C156.154 152.844 155.185 153.152 153.953 153.152ZM153.688 145.58C154.525 145.58 155.185 145.36 155.669 144.876C156.154 144.391 156.374 143.775 156.374 143.027C156.374 142.278 156.154 141.706 155.669 141.222C155.185 140.738 154.525 140.473 153.688 140.473H149.374V145.58H153.688ZM153.776 152.095C154.701 152.095 155.405 151.831 155.89 151.347C156.418 150.863 156.638 150.202 156.638 149.366C156.638 148.618 156.374 147.957 155.89 147.429C155.405 146.901 154.657 146.637 153.776 146.637H149.374V152.095H153.776Z" fill="black"/>
<path d="M173.671 153.416C171.954 153.416 170.59 152.932 169.665 151.919C168.741 150.951 168.301 149.586 168.301 147.869V139.373H169.489V147.825C169.489 149.234 169.841 150.334 170.59 151.127C171.294 151.919 172.351 152.315 173.671 152.315C175.036 152.315 176.049 151.919 176.753 151.127C177.457 150.334 177.81 149.234 177.81 147.825V139.373H178.998V147.869C178.998 149.586 178.558 150.951 177.633 151.919C176.753 152.932 175.432 153.416 173.671 153.416Z" fill="black"/>
<path d="M194.666 153.152H193.477V140.473H188.987V139.417H199.2V140.473H194.71V153.152H194.666Z" fill="black"/>
<path d="M210.256 153.152H209.067V139.373H210.256V153.152Z" fill="black"/>
<path d="M227.295 153.415C225.314 153.415 223.685 152.754 222.452 151.39C221.22 150.025 220.604 148.352 220.604 146.283C220.604 144.214 221.22 142.541 222.452 141.177C223.685 139.812 225.314 139.152 227.295 139.152C229.276 139.152 230.905 139.812 232.138 141.177C233.37 142.541 233.987 144.214 233.987 146.283C233.987 148.352 233.37 150.025 232.138 151.39C230.905 152.754 229.276 153.415 227.295 153.415ZM227.295 152.358C228.924 152.358 230.245 151.786 231.257 150.641C232.27 149.497 232.754 148.044 232.754 146.283C232.754 144.522 232.27 143.07 231.257 141.925C230.245 140.78 228.924 140.252 227.295 140.252C225.622 140.252 224.301 140.824 223.333 141.925C222.32 143.07 221.836 144.522 221.836 146.283C221.836 148.044 222.32 149.497 223.333 150.641C224.345 151.786 225.666 152.358 227.295 152.358Z" fill="black"/>
<path d="M255.381 153.152H254.236L245.564 141.354V153.196H244.375V139.417H245.564L254.192 151.083V139.417H255.381V153.152Z" fill="black"/>
</svg>
