<svg width="25" height="21" viewBox="0 0 25 21" fill="none" xmlns="http://www.w3.org/2000/svg">
<path d="M23.75 0.149902H1.25C0.559668 0.149902 0 0.754291 0 1.4999V19.4999C0 20.2454 0.559619 20.8499 1.25 20.8499H23.75C24.4403 20.8499 25 20.2455 25 19.4999V1.4999C25 0.754344 24.4404 0.149902 23.75 0.149902ZM24.1667 19.4999C24.1667 19.7485 23.9801 19.9499 23.75 19.9499H1.25C1.01987 19.9499 0.83335 19.7485 0.83335 19.4999V1.4999C0.83335 1.25137 1.01987 1.04992 1.25 1.04992H23.75C23.9801 1.04992 24.1667 1.25137 24.1667 1.4999V19.4999Z" fill="#E02F3D"/>
<path d="M22.9529 1.95169C22.8428 1.9413 22.7334 1.97858 22.6488 2.05536L13.0362 10.7763C12.7262 11.0578 12.2737 11.0578 11.9637 10.7763L2.35125 2.05531C2.23724 1.95195 2.08079 1.9221 1.9409 1.97705C1.80101 2.032 1.69886 2.16342 1.67298 2.32178C1.6471 2.48014 1.7014 2.64135 1.81541 2.74471L11.4279 11.4652C12.0474 12.0286 12.9525 12.0286 13.5721 11.4652L23.1846 2.74476C23.2692 2.66803 23.3221 2.55813 23.3318 2.43922C23.3414 2.3203 23.3069 2.20212 23.2358 2.11074C23.1648 2.01924 23.063 1.96208 22.9529 1.95169Z" fill="#E02F3D"/>
<path d="M8.01386 11.4034C7.86635 11.3678 7.71264 11.4213 7.61206 11.5431L1.77871 18.2931C1.67314 18.4099 1.63437 18.5793 1.67744 18.7357C1.7205 18.8921 1.83862 19.0111 1.98608 19.0467C2.13359 19.0822 2.2873 19.0287 2.38789 18.9069L8.22124 12.1569C8.3268 12.0402 8.36557 11.8708 8.32251 11.7144C8.27944 11.558 8.16137 11.4389 8.01386 11.4034Z" fill="#E02F3D"/>
<path d="M17.3879 11.5431C17.2874 11.4213 17.1336 11.3678 16.9861 11.4034C16.8386 11.4389 16.7205 11.558 16.6774 11.7144C16.6344 11.8708 16.6731 12.0402 16.7787 12.1569L22.6121 18.9069C22.7703 19.0819 23.0289 19.0884 23.1944 18.9216C23.36 18.7547 23.3719 18.4757 23.2212 18.2931L17.3879 11.5431Z" fill="#E02F3D"/>
</svg>
