<svg width="25" height="27" viewBox="0 0 25 27" fill="none" xmlns="http://www.w3.org/2000/svg">
<path d="M23.75 3.1499H1.25C0.559668 3.1499 0 3.75429 0 4.4999V22.4999C0 23.2454 0.559619 23.8499 1.25 23.8499H23.75C24.4403 23.8499 25 23.2455 25 22.4999V4.4999C25 3.75434 24.4404 3.1499 23.75 3.1499ZM24.1667 22.4999C24.1667 22.7485 23.9801 22.9499 23.75 22.9499H1.25C1.01987 22.9499 0.83335 22.7485 0.83335 22.4999V4.4999C0.83335 4.25137 1.01987 4.04992 1.25 4.04992H23.75C23.9801 4.04992 24.1667 4.25137 24.1667 4.4999V22.4999Z" fill="white"/>
<path d="M22.9529 4.95169C22.8428 4.9413 22.7334 4.97858 22.6488 5.05536L13.0362 13.7763C12.7262 14.0578 12.2737 14.0578 11.9637 13.7763L2.35125 5.05531C2.23724 4.95195 2.08079 4.9221 1.9409 4.97705C1.80101 5.032 1.69886 5.16342 1.67298 5.32178C1.6471 5.48014 1.7014 5.64135 1.81541 5.74471L11.4279 14.4652C12.0474 15.0286 12.9525 15.0286 13.5721 14.4652L23.1846 5.74476C23.2692 5.66803 23.3221 5.55813 23.3318 5.43922C23.3414 5.3203 23.3069 5.20212 23.2358 5.11074C23.1648 5.01924 23.063 4.96208 22.9529 4.95169Z" fill="white"/>
<path d="M8.01393 14.4034C7.86642 14.3678 7.7127 14.4213 7.61212 14.5431L1.77877 21.2931C1.6732 21.4099 1.63443 21.5793 1.6775 21.7357C1.72057 21.8921 1.83868 22.0111 1.98614 22.0467C2.13365 22.0822 2.28736 22.0287 2.38795 21.9069L8.2213 15.1569C8.32686 15.0402 8.36563 14.8708 8.32257 14.7144C8.2795 14.558 8.16143 14.4389 8.01393 14.4034Z" fill="white"/>
<path d="M17.3879 14.5431C17.2874 14.4213 17.1337 14.3678 16.9861 14.4034C16.8386 14.4389 16.7206 14.558 16.6775 14.7144C16.6344 14.8708 16.6732 15.0402 16.7788 15.1569L22.6121 21.9069C22.7703 22.0819 23.0289 22.0884 23.1945 21.9216C23.3601 21.7547 23.372 21.4757 23.2213 21.2931L17.3879 14.5431Z" fill="white"/>
</svg>
