<svg width="91" height="90" viewBox="0 0 91 90" fill="none" xmlns="http://www.w3.org/2000/svg">
<path d="M45.5 30.9375C44.519 30.9375 43.7227 31.7251 43.7227 32.6953C43.7227 33.6655 44.519 34.4531 45.5 34.4531C46.481 34.4531 47.2773 33.6655 47.2773 32.6953C47.2773 31.7251 46.481 30.9375 45.5 30.9375Z" fill="#BE111F"/>
<path d="M45.5 76.6406C44.519 76.6406 43.7227 77.4282 43.7227 78.3984C43.7227 79.3687 44.519 80.1562 45.5 80.1562C46.481 80.1562 47.2773 79.3687 47.2773 78.3984C47.2773 77.4282 46.481 76.6406 45.5 76.6406Z" fill="#BE111F"/>
<path d="M10.6641 34.4531H24.8828C25.8645 34.4531 26.6602 33.6662 26.6602 32.6953V29.1797C26.6602 26.1543 25.1251 23.4908 22.7451 21.8944C24.0629 20.6172 24.8828 18.8395 24.8828 16.875C24.8828 12.9982 21.6933 9.84375 17.7734 9.84375C13.8536 9.84375 10.6641 12.9982 10.6641 16.875C10.6641 18.8409 11.4847 20.6193 12.8038 21.8964C10.4419 23.4778 8.88672 26.1523 8.88672 29.1797V32.6953C8.88672 33.6662 9.68236 34.4531 10.6641 34.4531ZM17.7734 13.3594C19.7334 13.3594 21.3281 14.9366 21.3281 16.875C21.3281 18.8134 19.7334 20.3906 17.7734 20.3906C15.8135 20.3906 14.2188 18.8134 14.2188 16.875C14.2188 14.9366 15.8135 13.3594 17.7734 13.3594ZM12.4414 29.1797C12.4414 26.2717 14.8332 23.9062 17.7734 23.9062C20.7186 23.9062 23.1055 26.2669 23.1055 29.1797V30.9375H12.4414V29.1797Z" fill="#BE111F"/>
<path d="M52.6094 18.6328C52.6094 15.7249 50.2176 13.3594 47.2773 13.3594C44.3371 13.3594 41.9453 15.7249 41.9453 18.6328C41.9453 21.5408 44.3371 23.9062 47.2773 23.9062C50.2176 23.9062 52.6094 21.5408 52.6094 18.6328ZM47.2773 20.3906C46.297 20.3906 45.5 19.6024 45.5 18.6328C45.5 17.6633 46.297 16.875 47.2773 16.875C48.2577 16.875 49.0547 17.6633 49.0547 18.6328C49.0547 19.6024 48.2577 20.3906 47.2773 20.3906Z" fill="#BE111F"/>
<path d="M61.4961 23.9062C64.4363 23.9062 66.8281 21.5408 66.8281 18.6328C66.8281 15.7249 64.4363 13.3594 61.4961 13.3594C58.5558 13.3594 56.1641 15.7249 56.1641 18.6328C56.1641 21.5408 58.5558 23.9062 61.4961 23.9062ZM61.4961 16.875C62.4764 16.875 63.2734 17.6633 63.2734 18.6328C63.2734 19.6024 62.4764 20.3906 61.4961 20.3906C60.5158 20.3906 59.7188 19.6024 59.7188 18.6328C59.7188 17.6633 60.5158 16.875 61.4961 16.875Z" fill="#BE111F"/>
<path d="M75.7148 13.3594C72.7746 13.3594 70.3828 15.7249 70.3828 18.6328C70.3828 21.5408 72.7746 23.9062 75.7148 23.9062C78.6551 23.9062 81.0469 21.5408 81.0469 18.6328C81.0469 15.7249 78.6551 13.3594 75.7148 13.3594ZM75.7148 20.3906C74.7345 20.3906 73.9375 19.6024 73.9375 18.6328C73.9375 17.6633 74.7345 16.875 75.7148 16.875C76.6952 16.875 77.4922 17.6633 77.4922 18.6328C77.4922 19.6024 76.6952 20.3906 75.7148 20.3906Z" fill="#BE111F"/>
<path d="M10.6641 80.1562H24.8828C25.8645 80.1562 26.6602 79.3694 26.6602 78.3984V67.8516C26.6602 66.8806 25.8645 66.0938 24.8828 66.0938V62.5781C24.8828 58.6938 21.7016 55.5469 17.7734 55.5469C13.8536 55.5469 10.6641 58.7013 10.6641 62.5781V66.0938C9.68236 66.0938 8.88672 66.8806 8.88672 67.8516V78.3984C8.88672 79.3694 9.68236 80.1562 10.6641 80.1562ZM14.2188 62.5781C14.2188 60.6397 15.8135 59.0625 17.7734 59.0625C19.7368 59.0625 21.3281 60.6363 21.3281 62.5781V66.0938H14.2188V62.5781ZM12.4414 69.6094H23.1055V76.6406H12.4414V69.6094Z" fill="#BE111F"/>
<path d="M52.6094 64.3359C52.6094 61.428 50.2176 59.0625 47.2773 59.0625C44.3371 59.0625 41.9453 61.428 41.9453 64.3359C41.9453 67.2439 44.3371 69.6094 47.2773 69.6094C50.2176 69.6094 52.6094 67.2439 52.6094 64.3359ZM47.2773 66.0938C46.297 66.0938 45.5 65.3055 45.5 64.3359C45.5 63.3664 46.297 62.5781 47.2773 62.5781C48.2577 62.5781 49.0547 63.3664 49.0547 64.3359C49.0547 65.3055 48.2577 66.0938 47.2773 66.0938Z" fill="#BE111F"/>
<path d="M61.4961 69.6094C64.4363 69.6094 66.8281 67.2439 66.8281 64.3359C66.8281 61.428 64.4363 59.0625 61.4961 59.0625C58.5558 59.0625 56.1641 61.428 56.1641 64.3359C56.1641 67.2439 58.5558 69.6094 61.4961 69.6094ZM61.4961 62.5781C62.4764 62.5781 63.2734 63.3664 63.2734 64.3359C63.2734 65.3055 62.4764 66.0938 61.4961 66.0938C60.5158 66.0938 59.7188 65.3055 59.7188 64.3359C59.7188 63.3664 60.5158 62.5781 61.4961 62.5781Z" fill="#BE111F"/>
<path d="M77.4922 76.6406H52.6094C51.6277 76.6406 50.832 77.4275 50.832 78.3984C50.832 79.3694 51.6277 80.1562 52.6094 80.1562H77.4922C78.4739 80.1562 79.2695 79.3694 79.2695 78.3984C79.2695 77.4275 78.4739 76.6406 77.4922 76.6406Z" fill="#BE111F"/>
<path d="M77.4922 30.9375H52.6094C51.6277 30.9375 50.832 31.7244 50.832 32.6953C50.832 33.6662 51.6277 34.4531 52.6094 34.4531H77.4922C78.4739 34.4531 79.2695 33.6662 79.2695 32.6953C79.2695 31.7244 78.4739 30.9375 77.4922 30.9375Z" fill="#BE111F"/>
<path d="M85.668 2.8125H5.33203C2.39178 2.8125 0 5.17799 0 8.08594V36.2109C0 39.1189 2.39178 41.4844 5.33203 41.4844H85.668C88.6082 41.4844 91 39.1189 91 36.2109V8.08594C91 5.17799 88.6082 2.8125 85.668 2.8125ZM31.9922 37.9688H5.33203C4.35172 37.9688 3.55469 37.1805 3.55469 36.2109V8.08594C3.55469 7.11639 4.35172 6.32812 5.33203 6.32812H31.9922V37.9688ZM87.4453 36.2109C87.4453 37.1805 86.6483 37.9688 85.668 37.9688H35.5469V6.32812H85.668C86.6483 6.32812 87.4453 7.11639 87.4453 8.08594V36.2109Z" fill="black"/>
<path d="M85.668 48.5156H5.33203C2.39178 48.5156 0 50.8811 0 53.7891V81.9141C0 84.822 2.39178 87.1875 5.33203 87.1875H85.668C88.6082 87.1875 91 84.822 91 81.9141V53.7891C91 50.8811 88.6082 48.5156 85.668 48.5156ZM31.9922 83.6719H5.33203C4.35172 83.6719 3.55469 82.8836 3.55469 81.9141V53.7891C3.55469 52.8195 4.35172 52.0312 5.33203 52.0312H31.9922V83.6719ZM87.4453 81.9141C87.4453 82.8836 86.6483 83.6719 85.668 83.6719H35.5469V52.0312H85.668C86.6483 52.0312 87.4453 52.8195 87.4453 53.7891V81.9141Z" fill="black"/>
</svg>
