<svg width="25" height="25" viewBox="0 0 25 25" fill="none" xmlns="http://www.w3.org/2000/svg">
<g clip-path="url(#clip0)">
<path d="M24.3443 19.2867L19.2842 15.9122C18.6421 15.4875 17.7813 15.6272 17.3066 16.2334L15.8326 18.1286C15.6432 18.3783 15.2988 18.4508 15.0248 18.2986L14.7444 18.144C13.815 17.6374 12.6585 17.0067 10.3284 14.6758C7.99837 12.3449 7.36638 11.1875 6.85977 10.2598L6.70603 9.97938C6.55171 9.7054 6.62279 9.3596 6.87266 9.16866L8.76652 7.69515C9.37248 7.22037 9.51245 6.35985 9.08815 5.71751L5.71365 0.657425C5.2788 0.00332293 4.40637 -0.193035 3.73318 0.211642L1.61724 1.48269C0.952394 1.87355 0.464625 2.50656 0.256209 3.24908C-0.505739 6.02533 0.0674667 10.8167 7.1256 17.8757C12.7402 23.4898 16.92 24.9996 19.7929 24.9996C20.4541 25.0024 21.1127 24.9164 21.751 24.7438C22.4936 24.5357 23.1267 24.0478 23.5174 23.3828L24.7897 21.2681C25.1949 20.5948 24.9987 19.7218 24.3443 19.2867ZM24.0718 20.8407L22.8024 22.9566C22.5219 23.4366 22.0666 23.7895 21.5318 23.9415C18.9688 24.6451 14.4912 24.0623 7.71506 17.2862C0.938969 10.5101 0.356194 6.03285 1.05985 3.46951C1.21197 2.93404 1.56534 2.4781 2.04593 2.19719L4.16188 0.927795C4.45397 0.75204 4.83263 0.837232 5.02132 1.12108L6.8544 3.87316L8.39294 6.18073C8.57719 6.45935 8.51665 6.83278 8.2538 7.03895L6.3595 8.51246C5.78302 8.95326 5.6184 9.75085 5.97333 10.3839L6.12375 10.6572C6.65619 11.6337 7.31815 12.8485 9.73488 15.2648C12.1516 17.6811 13.366 18.3431 14.3421 18.8755L14.6158 19.0263C15.2488 19.3812 16.0464 19.2166 16.4872 18.6402L17.9607 16.7459C18.1669 16.4832 18.5402 16.4227 18.8189 16.6067L23.8786 19.9812C24.1626 20.1698 24.2478 20.5486 24.0718 20.8407Z" fill="white"/>
<path d="M14.166 4.16863C18.0757 4.17297 21.2439 7.3413 21.2483 11.2509C21.2483 11.481 21.4348 11.6675 21.6649 11.6675C21.895 11.6675 22.0815 11.481 22.0815 11.2509C22.0767 6.88131 18.5357 3.34023 14.166 3.33545C13.9359 3.33545 13.7495 3.52195 13.7495 3.75204C13.7495 3.98213 13.9359 4.16863 14.166 4.16863Z" fill="white"/>
<path d="M14.166 6.66838C16.6957 6.67136 18.7457 8.72135 18.7487 11.2511C18.7487 11.4811 18.9353 11.6676 19.1653 11.6676C19.3954 11.6676 19.5819 11.4811 19.5819 11.2511C19.5784 8.26136 17.1557 5.83862 14.166 5.83521C13.9359 5.83521 13.7495 6.0217 13.7495 6.25179C13.7495 6.48189 13.9359 6.66838 14.166 6.66838Z" fill="white"/>
<path d="M14.166 9.16789C15.3159 9.16926 16.2477 10.1011 16.2491 11.2509C16.2491 11.481 16.4356 11.6675 16.6657 11.6675C16.8957 11.6675 17.0823 11.481 17.0823 11.2509C17.0804 9.64111 15.7759 8.33652 14.166 8.33472C13.9359 8.33472 13.7495 8.52121 13.7495 8.75131C13.7495 8.9814 13.9359 9.16789 14.166 9.16789Z" fill="white"/>
</g>
<defs>
<clipPath id="clip0">
<rect width="25" height="25" fill="white"/>
</clipPath>
</defs>
</svg>
