<svg width="25" height="25" viewBox="0 0 25 25" fill="none" xmlns="http://www.w3.org/2000/svg">
<path d="M24.3443 19.2867L19.2843 15.9122C18.6421 15.4875 17.7814 15.6272 17.3066 16.2334L15.8327 18.1286C15.6432 18.3783 15.2989 18.4508 15.0249 18.2986L14.7445 18.144C13.815 17.6374 12.6586 17.0067 10.3285 14.6758C7.99843 12.3449 7.36644 11.1875 6.85983 10.2598L6.70609 9.97938C6.55177 9.7054 6.62285 9.3596 6.87272 9.16866L8.76658 7.69515C9.37254 7.22037 9.51251 6.35985 9.08821 5.71751L5.71371 0.657425C5.27886 0.00332293 4.40643 -0.193035 3.73324 0.211642L1.6173 1.48269C0.952455 1.87355 0.464686 2.50656 0.25627 3.24908C-0.505678 6.02533 0.0675277 10.8167 7.12566 17.8757C12.7403 23.4898 16.9201 24.9996 19.793 24.9996C20.4541 25.0024 21.1127 24.9164 21.751 24.7438C22.4937 24.5357 23.1268 24.0478 23.5174 23.3828L24.7897 21.2681C25.195 20.5948 24.9987 19.7218 24.3443 19.2867ZM24.0719 20.8407L22.8025 22.9566C22.522 23.4366 22.0667 23.7895 21.5318 23.9415C18.9689 24.6451 14.4912 24.0623 7.71512 17.2862C0.93903 10.5101 0.356255 6.03285 1.05991 3.46951C1.21204 2.93404 1.5654 2.4781 2.04599 2.19719L4.16194 0.927795C4.45403 0.75204 4.83269 0.837232 5.02138 1.12108L6.85446 3.87316L8.393 6.18073C8.57725 6.45935 8.51671 6.83278 8.25386 7.03895L6.35956 8.51246C5.78309 8.95326 5.61846 9.75085 5.97339 10.3839L6.12381 10.6572C6.65625 11.6337 7.31821 12.8485 9.73494 15.2648C12.1517 17.6811 13.3661 18.3431 14.3422 18.8755L14.6159 19.0263C15.2488 19.3812 16.0465 19.2166 16.4873 18.6402L17.9608 16.7459C18.167 16.4832 18.5403 16.4227 18.819 16.6067L23.8786 19.9812C24.1627 20.1698 24.2479 20.5486 24.0719 20.8407Z" fill="#E02F3D"/>
<path d="M14.1661 4.16863C18.0757 4.17297 21.244 7.3413 21.2484 11.2509C21.2484 11.481 21.4349 11.6675 21.665 11.6675C21.8951 11.6675 22.0816 11.481 22.0816 11.2509C22.0767 6.88131 18.5357 3.34023 14.1661 3.33545C13.936 3.33545 13.7495 3.52195 13.7495 3.75204C13.7495 3.98213 13.936 4.16863 14.1661 4.16863Z" fill="#E02F3D"/>
<path d="M14.1661 6.66838C16.6958 6.67136 18.7458 8.72135 18.7488 11.2511C18.7488 11.4811 18.9353 11.6676 19.1654 11.6676C19.3955 11.6676 19.5819 11.4811 19.5819 11.2511C19.5785 8.26136 17.1557 5.83862 14.1661 5.83521C13.936 5.83521 13.7495 6.0217 13.7495 6.25179C13.7495 6.48189 13.936 6.66838 14.1661 6.66838Z" fill="#E02F3D"/>
<path d="M14.1661 9.16789C15.3159 9.16926 16.2477 10.1011 16.2491 11.2509C16.2491 11.481 16.4357 11.6675 16.6657 11.6675C16.8958 11.6675 17.0823 11.481 17.0823 11.2509C17.0805 9.64111 15.7759 8.33652 14.1661 8.33472C13.936 8.33472 13.7495 8.52121 13.7495 8.75131C13.7495 8.9814 13.936 9.16789 14.1661 9.16789Z" fill="#E02F3D"/>
</svg>
