<svg width="20" height="20" viewBox="0 0 20 20" fill="none" xmlns="http://www.w3.org/2000/svg">
<g clip-path="url(#clip0)">
<path d="M19.6335 8.89743C19.8423 8.89743 20.0112 8.73303 20.0112 8.52986C20.0112 8.32669 19.8423 8.16229 19.6335 8.16229H18.8779V5.95689H19.6335C19.8423 5.95689 20.0112 5.79249 20.0112 5.58932C20.0112 5.38615 19.8423 5.22175 19.6335 5.22175H18.8779V3.12616C18.8779 2.25502 18.1493 1.54608 17.2539 1.54608H15.1444V0.443373C15.1444 0.2402 14.9755 0.0758057 14.7666 0.0758057C14.5578 0.0758057 14.3889 0.2402 14.3889 0.443373V1.54608H12.1222V0.443373C12.1222 0.2402 11.9532 0.0758057 11.7444 0.0758057C11.5356 0.0758057 11.3666 0.2402 11.3666 0.443373V1.54608H9.09998V0.443373C9.09998 0.2402 8.93101 0.0758057 8.7222 0.0758057C8.51338 0.0758057 8.34442 0.2402 8.34442 0.443373V1.54608H6.03346V0.552541C6.03346 0.349368 5.8645 0.184973 5.65568 0.184973C5.44686 0.184973 5.2779 0.349368 5.2779 0.552541V1.54608H2.74632C1.85099 1.54608 1.12235 2.25502 1.12235 3.12616V5.22175H0.366791C0.157975 5.22175 -0.0109863 5.38615 -0.0109863 5.58932C-0.0109863 5.79249 0.157975 5.95689 0.366791 5.95689H1.12235V8.16229H0.366791C0.157975 8.16229 -0.0109863 8.32669 -0.0109863 8.52986C-0.0109863 8.73303 0.157975 8.89743 0.366791 8.89743H1.12235V11.1028H0.366791C0.157975 11.1028 -0.0109863 11.2672 -0.0109863 11.4704C-0.0109863 11.6736 0.157975 11.838 0.366791 11.838H1.12235V14.0434H0.366791C0.157975 14.0434 -0.0109863 14.2078 -0.0109863 14.4109C-0.0109863 14.6141 0.157975 14.7785 0.366791 14.7785H1.12235V17.237C1.12235 18.1081 1.85099 18.8171 2.74632 18.8171H5.2779V19.5569C5.2779 19.7601 5.44686 19.9245 5.65568 19.9245C5.8645 19.9245 6.03346 19.7601 6.03346 19.5569V18.8171H8.34442V19.3968C8.34442 19.6 8.51338 19.7644 8.7222 19.7644C8.93101 19.7644 9.09998 19.6 9.09998 19.3968V18.8171H11.3666V19.3968C11.3666 19.6 11.5356 19.7644 11.7444 19.7644C11.9532 19.7644 12.1222 19.6 12.1222 19.3968V18.8171H14.3889V19.3968C14.3889 19.6 14.5578 19.7644 14.7666 19.7644C14.9755 19.7644 15.1444 19.6 15.1444 19.3968V18.8171H17.2539C18.1493 18.8171 18.8779 18.1081 18.8779 17.237V14.7785H19.6335C19.8423 14.7785 20.0112 14.6141 20.0112 14.4109C20.0112 14.2078 19.8423 14.0434 19.6335 14.0434H18.8779V11.838H19.6335C19.8423 11.838 20.0112 11.6736 20.0112 11.4704C20.0112 11.2672 19.8423 11.1028 19.6335 11.1028H18.8779V8.89743H19.6335ZM18.1223 8.16229H16.9606V5.95689H18.1223V8.16229ZM17.2539 2.28121C17.7328 2.28121 18.1223 2.66027 18.1223 3.12616V5.22175H16.9606V3.74679C16.9606 3.54362 16.7916 3.37923 16.5828 3.37923H15.1444V2.28121H17.2539ZM3.79522 16.2488V4.11436H5.63198C5.64019 4.11491 5.64728 4.11905 5.65568 4.11905C5.66409 4.11905 5.67117 4.11491 5.67948 4.11436H16.2051V16.2488H3.79522ZM14.3889 2.28121V3.37923H12.1222V2.28121H14.3889ZM11.3666 2.28121V3.37923H9.09998V2.28121H11.3666ZM8.34442 2.28121V3.37923H6.03346V2.28121H8.34442ZM1.8779 3.12616C1.8779 2.66027 2.26749 2.28121 2.74632 2.28121H5.2779V3.37923H3.41744C3.20863 3.37923 3.03966 3.54362 3.03966 3.74679V5.22175H1.8779V3.12616ZM1.8779 5.95689H3.03966V8.16229H1.8779V5.95689ZM1.8779 8.89743H3.03966V11.1028H1.8779V8.89743ZM1.8779 11.838H3.03966V14.0434H1.8779V11.838ZM2.74632 18.0819C2.26749 18.0819 1.8779 17.7029 1.8779 17.237V14.7785H3.03966V16.6163C3.03966 16.8195 3.20863 16.9839 3.41744 16.9839H5.2779V18.0819H2.74632ZM6.03346 18.0819V16.9839H8.34442V18.0819H6.03346ZM9.09998 18.0819V16.9839H11.3666V18.0819H9.09998ZM12.1222 18.0819V16.9839H14.3889V18.0819H12.1222ZM18.1223 17.237C18.1223 17.7029 17.7328 18.0819 17.2539 18.0819H15.1444V16.9839H16.5828C16.7916 16.9839 16.9606 16.8195 16.9606 16.6163V14.7785H18.1223V17.237ZM18.1223 14.0434H16.9606V11.838H18.1223V14.0434ZM18.1223 11.1028H16.9606V8.89743H18.1223V11.1028Z" fill="black"/>
<path d="M15.1 13.5793C14.8912 13.5793 14.7223 13.7437 14.7223 13.9469V14.7833H13.9715C13.7627 14.7833 13.5938 14.9477 13.5938 15.1509C13.5938 15.354 13.7627 15.5184 13.9715 15.5184H15.1C15.3089 15.5184 15.4778 15.354 15.4778 15.1509V13.9469C15.4778 13.7437 15.3089 13.5793 15.1 13.5793Z" fill="black"/>
<path d="M6.03339 14.7833H5.28265V13.9469C5.28265 13.7437 5.11369 13.5793 4.90488 13.5793C4.69606 13.5793 4.5271 13.7437 4.5271 13.9469V15.1509C4.5271 15.354 4.69606 15.5184 4.90488 15.5184H6.03339C6.24221 15.5184 6.41117 15.354 6.41117 15.1509C6.41117 14.9477 6.24221 14.7833 6.03339 14.7833Z" fill="black"/>
<path d="M15.1 4.75769H13.9715C13.7627 4.75769 13.5938 4.92209 13.5938 5.12526C13.5938 5.32843 13.7627 5.49283 13.9715 5.49283H14.7223V6.32923C14.7223 6.5324 14.8912 6.69679 15.1 6.69679C15.3089 6.69679 15.4778 6.5324 15.4778 6.32923V5.12526C15.4778 4.92209 15.3089 4.75769 15.1 4.75769Z" fill="black"/>
<path d="M4.90488 6.69679C5.11369 6.69679 5.28265 6.5324 5.28265 6.32923V5.49283H6.03339C6.24221 5.49283 6.41117 5.32843 6.41117 5.12526C6.41117 4.92209 6.24221 4.75769 6.03339 4.75769H4.90488C4.69606 4.75769 4.5271 4.92209 4.5271 5.12526V6.32923C4.5271 6.5324 4.69606 6.69679 4.90488 6.69679Z" fill="black"/>
<path d="M13.2115 10.0001C13.4203 10.0001 13.5893 9.83571 13.5893 9.63254C13.5893 9.42937 13.4203 9.26497 13.2115 9.26497H12.4559V8.8974C12.4559 8.22678 12.1885 7.61717 11.7549 7.15872L12.3452 6.58439C12.4927 6.44086 12.4927 6.20819 12.3452 6.06465C12.1977 5.92112 11.9586 5.92112 11.811 6.06465L11.1663 6.692C10.7694 6.46025 10.3069 6.32443 9.81147 6.32443C9.31602 6.32443 8.85352 6.46025 8.45666 6.69191L7.81189 6.06456C7.66437 5.92103 7.42524 5.92103 7.27771 6.06456C7.13019 6.2081 7.13019 6.44077 7.27771 6.5843L7.86799 7.15863C7.4344 7.61717 7.16703 8.22678 7.16703 8.8974V9.26497H6.41147C6.20265 9.26497 6.03369 9.42937 6.03369 9.63254C6.03369 9.83571 6.20265 10.0001 6.41147 10.0001H7.16703V10.3677H6.41147C6.20265 10.3677 6.03369 10.5321 6.03369 10.7352C6.03369 10.9384 6.20265 11.1028 6.41147 11.1028H7.17704C7.18535 11.2633 7.21529 11.4169 7.26147 11.5648L6.62029 11.8767C6.43357 11.9675 6.35801 12.1883 6.45132 12.3699C6.51772 12.4987 6.65089 12.5731 6.78962 12.5731C6.84648 12.5731 6.904 12.5605 6.95821 12.5343L7.61516 12.2147C7.70054 12.3174 7.79546 12.4104 7.90029 12.4942L7.23049 13.4718C7.11461 13.6409 7.16155 13.8688 7.33523 13.9815C7.39983 14.0231 7.47246 14.0433 7.54443 14.0433C7.66654 14.0433 7.78639 13.9858 7.85911 13.8796L8.5682 12.8447C8.75483 12.9013 8.94929 12.9406 9.1548 12.9406H10.4681C10.6737 12.9406 10.8681 12.9013 11.0547 12.8447L11.7638 13.8796C11.8365 13.9858 11.9564 14.0433 12.0785 14.0433C12.1505 14.0433 12.2231 14.0231 12.2877 13.9815C12.4615 13.8688 12.5083 13.6409 12.3924 13.4718L11.7226 12.4942C11.8275 12.4103 11.9224 12.3173 12.0078 12.2147L12.6647 12.5343C12.7189 12.5605 12.7766 12.5731 12.8333 12.5731C12.9721 12.5731 13.1052 12.4987 13.1716 12.3699C13.2649 12.1882 13.1894 11.9675 13.0027 11.8767L12.3615 11.5648C12.4077 11.4169 12.4376 11.2633 12.4459 11.1028H13.2115C13.4203 11.1028 13.5893 10.9384 13.5893 10.7352C13.5893 10.5321 13.4203 10.3677 13.2115 10.3677H12.4559V10.0001H13.2115ZM11.7004 8.8974H7.92258C7.92258 7.88411 8.77003 7.05957 9.81147 7.05957C10.8529 7.05957 11.7004 7.88411 11.7004 8.8974ZM9.1548 12.2055C8.47527 12.2055 7.92258 11.6678 7.92258 11.0066V9.63254H11.7004V11.0066C11.7004 11.6678 11.1477 12.2055 10.4681 12.2055H9.1548Z" fill="black"/>
</g>
<defs>
<clipPath id="clip0">
<rect width="20" height="20" fill="white"/>
</clipPath>
</defs>
</svg>
