<svg width="25" height="26" viewBox="0 0 25 26" fill="none" xmlns="http://www.w3.org/2000/svg">
<path d="M24.6997 2.36412C24.4666 2.16208 24.1457 2.10951 23.8641 2.22714L2.75834 11.0868C2.54488 11.1765 2.44179 11.4293 2.52808 11.6513C2.61437 11.8733 2.85743 11.9805 3.07089 11.8907L23.2332 3.42988L13.2317 15.6977C13.0829 15.8804 13.1046 16.1539 13.2802 16.3086C13.4558 16.4634 13.7188 16.4408 13.8676 16.2582L24.0204 3.80389L22.6635 10.8874L21.2966 20.3863C21.2779 20.5192 21.2009 20.6356 21.0883 20.7013C20.9802 20.7641 20.8501 20.7703 20.7369 20.7183L15.054 18.3944L12.3269 17.2068C12.1147 17.1143 11.8705 17.218 11.7814 17.4387C11.7723 17.4684 11.7664 17.4991 11.7639 17.5302H11.7539L10.3999 22.9676L8.45713 15.9097L18.5837 8.06515C18.7131 7.97673 18.7848 7.82101 18.7697 7.66072C18.7546 7.50043 18.6553 7.36208 18.5119 7.30144C18.3684 7.24079 18.2045 7.26786 18.0861 7.37173L7.90749 15.253L0.570499 12.1642C0.357575 12.0764 0.116424 12.1837 0.0305222 12.4045C-0.0553799 12.6254 0.0461985 12.8769 0.25795 12.9677L7.6341 16.0718L9.60106 23.2133C9.70347 23.5822 10.0287 23.8357 10.3979 23.8344H10.4074C10.6087 23.8306 10.8015 23.7499 10.9492 23.6077C10.9637 23.5986 10.9776 23.5885 10.9908 23.5774L15.019 19.2937L20.4198 21.5209C20.7669 21.6743 21.1628 21.6512 21.4912 21.4585C21.8296 21.2633 22.0617 20.9156 22.1192 20.5176L23.4824 11.0365L24.9826 3.20884C25.045 2.89456 24.9363 2.57002 24.6997 2.36412ZM11.5681 21.7267L12.4478 18.2001L13.8255 18.8017L14.1805 18.9482L11.5681 21.7267Z" fill="white"/>
</svg>
