<svg width="25" height="22" viewBox="0 0 25 22" fill="none" xmlns="http://www.w3.org/2000/svg">
<path d="M24.6997 0.364118C24.4666 0.162078 24.1457 0.109511 23.8641 0.227139L2.75834 9.08675C2.54488 9.1765 2.44179 9.42928 2.52808 9.65127C2.61437 9.87327 2.85743 9.98049 3.07089 9.89075L23.2332 1.42988L13.2317 13.6977C13.0829 13.8804 13.1046 14.1539 13.2802 14.3086C13.4558 14.4634 13.7188 14.4408 13.8676 14.2582L24.0204 1.80389L22.6635 8.88741L21.2966 18.3863C21.2779 18.5192 21.2009 18.6356 21.0883 18.7013C20.9802 18.7641 20.8501 18.7703 20.7369 18.7183L15.054 16.3944L12.3269 15.2068C12.1147 15.1143 11.8705 15.218 11.7814 15.4387C11.7723 15.4684 11.7664 15.4991 11.7639 15.5302H11.7539L10.3999 20.9676L8.45713 13.9097L18.5837 6.06515C18.7131 5.97673 18.7848 5.82101 18.7697 5.66072C18.7546 5.50043 18.6553 5.36208 18.5119 5.30144C18.3684 5.24079 18.2045 5.26786 18.0861 5.37173L7.90749 13.253L0.570499 10.1642C0.357575 10.0764 0.116424 10.1837 0.0305222 10.4045C-0.0553799 10.6254 0.0461985 10.8769 0.25795 10.9677L7.6341 14.0718L9.60106 21.2133C9.70347 21.5822 10.0287 21.8357 10.3979 21.8344H10.4074C10.6087 21.8306 10.8015 21.7499 10.9492 21.6077C10.9637 21.5986 10.9776 21.5885 10.9908 21.5774L15.019 17.2937L20.4198 19.5209C20.7669 19.6743 21.1628 19.6512 21.4912 19.4585C21.8296 19.2633 22.0617 18.9156 22.1192 18.5176L23.4824 9.03652L24.9826 1.20884C25.045 0.89456 24.9363 0.570017 24.6997 0.364118ZM11.5681 19.7267L12.4478 16.2001L13.8255 16.8017L14.1805 16.9482L11.5681 19.7267Z" fill="#E02F3D"/>
</svg>
