<svg width="90" height="90" viewBox="0 0 90 90" fill="none" xmlns="http://www.w3.org/2000/svg">
<path d="M53.0859 7.03125C52.1157 7.03125 51.3281 7.81883 51.3281 8.78906C51.3281 9.75929 52.1157 10.5469 53.0859 10.5469C54.0562 10.5469 54.8438 9.75929 54.8438 8.78906C54.8438 7.81883 54.0562 7.03125 53.0859 7.03125Z" fill="#BE111F"/>
<path d="M67.1484 7.03125H60.1172C59.1463 7.03125 58.3594 7.81815 58.3594 8.78906C58.3594 9.75998 59.1463 10.5469 60.1172 10.5469H67.1484C68.1194 10.5469 68.9062 9.75998 68.9062 8.78906C68.9062 7.81815 68.1194 7.03125 67.1484 7.03125Z" fill="#BE111F"/>
<path d="M81.2109 7.03125H74.1797C73.2088 7.03125 72.4219 7.81815 72.4219 8.78906C72.4219 9.75998 73.2088 10.5469 74.1797 10.5469H81.2109C82.1819 10.5469 82.9688 9.75998 82.9688 8.78906C82.9688 7.81815 82.1819 7.03125 81.2109 7.03125Z" fill="#BE111F"/>
<path d="M84.7266 0H5.27344C2.36549 0 0 2.36549 0 5.27344V84.7266C0 87.6345 2.36549 90 5.27344 90H84.7266C87.6345 90 90 87.6345 90 84.7266V5.27344C90 2.36549 87.6345 0 84.7266 0ZM86.4844 84.7266C86.4844 85.6961 85.6961 86.4844 84.7266 86.4844H5.27344C4.30389 86.4844 3.51562 85.6961 3.51562 84.7266V17.5781H86.4844V84.7266ZM86.4844 14.0625H3.51562V5.27344C3.51562 4.30389 4.30389 3.51562 5.27344 3.51562H84.7266C85.6961 3.51562 86.4844 4.30389 86.4844 5.27344V14.0625Z" fill="black"/>
<path d="M13.3594 39.7266H76.6406C77.6115 39.7266 78.3984 38.9397 78.3984 37.9688V27.4219C78.3984 26.451 77.6115 25.6641 76.6406 25.6641H13.3594C12.3885 25.6641 11.6016 26.451 11.6016 27.4219V37.9688C11.6016 38.9397 12.3885 39.7266 13.3594 39.7266ZM15.1172 29.1797H74.8828V36.2109H15.1172V29.1797Z" fill="#BE111F"/>
<path d="M13.3594 78.9258H34.4531C35.424 78.9258 36.2109 78.1389 36.2109 77.168V49.043C36.2109 48.0721 35.424 47.2852 34.4531 47.2852H13.3594C12.3885 47.2852 11.6016 48.0721 11.6016 49.043V77.168C11.6016 78.1389 12.3885 78.9258 13.3594 78.9258ZM15.1172 50.8008H32.6953V75.4102H15.1172V50.8008Z" fill="#BE111F"/>
<path d="M76.6406 47.2852H45C44.9828 47.2852 44.9664 47.2872 44.9492 47.2879C43.9845 47.3154 43.2422 48.1112 43.2422 49.043V77.168C43.2422 77.1783 43.2436 77.1886 43.2436 77.1989C43.2607 78.1691 44.0572 78.9258 45 78.9258H76.6406C77.5882 78.9258 78.3799 78.1664 78.3971 77.1989C78.3971 77.1886 78.3984 77.1783 78.3984 77.168V49.043C78.3984 48.083 77.6157 47.2852 76.6406 47.2852ZM72.0174 50.8008L60.8203 60.7537L49.6232 50.8008H72.0174ZM46.7578 52.9575L58.1747 63.1055L46.7578 73.2534V52.9575ZM49.6232 75.4102L60.8203 65.4572L72.0174 75.4102H49.6232ZM74.8828 73.2534L63.466 63.1055L74.8828 52.9575V73.2534Z" fill="#BE111F"/>
</svg>
