<svg width="18" height="20" viewBox="0 0 18 20" fill="none" xmlns="http://www.w3.org/2000/svg">
<path d="M14.625 2.85714H18V20H0V2.85714H3.375V1.71429C3.375 1.24571 3.54375 0.845714 3.87 0.502857C4.19625 0.171429 4.60125 0 5.0625 0C5.52375 0 5.92875 0.171429 6.255 0.502857C6.58125 0.845714 6.75 1.24571 6.75 1.71429V2.85714H11.25V1.71429C11.25 1.24571 11.4187 0.845714 11.745 0.502857C12.0712 0.171429 12.4762 0 12.9375 0C13.3988 0 13.8038 0.171429 14.13 0.502857C14.4563 0.845714 14.625 1.24571 14.625 1.71429V2.85714ZM4.5 1.71429V4.57143C4.49863 4.64685 4.51224 4.72179 4.54002 4.79175C4.5678 4.86171 4.60918 4.92526 4.66169 4.9786C4.7142 5.03194 4.77676 5.07398 4.84563 5.1022C4.91449 5.13043 4.98825 5.14425 5.0625 5.14286C5.13675 5.14425 5.21051 5.13043 5.27937 5.1022C5.34824 5.07398 5.4108 5.03194 5.46331 4.9786C5.51582 4.92526 5.5572 4.86171 5.58498 4.79175C5.61276 4.72179 5.62637 4.64685 5.625 4.57143V1.71429C5.625 1.55429 5.56875 1.41714 5.45625 1.31429C5.355 1.2 5.22 1.14286 5.0625 1.14286C4.905 1.14286 4.77 1.2 4.66875 1.31429C4.55625 1.41714 4.5 1.55429 4.5 1.71429ZM12.375 1.71429V4.57143C12.375 4.73143 12.4313 4.86857 12.5325 4.98286C12.645 5.08571 12.78 5.14286 12.9375 5.14286C13.095 5.14286 13.23 5.08571 13.3425 4.98286C13.4437 4.86857 13.5 4.73143 13.5 4.57143V1.71429C13.5014 1.63886 13.4878 1.56393 13.46 1.49397C13.4322 1.42401 13.3908 1.36046 13.3383 1.30712C13.2858 1.25377 13.2232 1.21173 13.1544 1.18351C13.0855 1.15529 13.0117 1.14146 12.9375 1.14286C12.8633 1.14146 12.7895 1.15529 12.7206 1.18351C12.6518 1.21173 12.5892 1.25377 12.5367 1.30712C12.4842 1.36046 12.4428 1.42401 12.415 1.49397C12.3872 1.56393 12.3736 1.63886 12.375 1.71429ZM16.875 18.8571V7.42857H1.125V18.8571H16.875ZM5.625 8.57143V10.8571H3.375V8.57143H5.625ZM7.875 8.57143H10.125V10.8571H7.875V8.57143ZM12.375 10.8571V8.57143H14.625V10.8571H12.375ZM5.625 12V14.2857H3.375V12H5.625ZM7.875 12H10.125V14.2857H7.875V12ZM12.375 14.2857V12H14.625V14.2857H12.375ZM5.625 15.4286V17.7143H3.375V15.4286H5.625ZM10.125 17.7143H7.875V15.4286H10.125V17.7143ZM14.625 17.7143H12.375V15.4286H14.625V17.7143Z" fill="#E02F3D"/>
</svg>
