<svg width="20" height="20" viewBox="0 0 20 20" fill="none" xmlns="http://www.w3.org/2000/svg">
<path d="M17.65 6.86589C17.8361 6.86589 17.987 6.71501 17.987 6.52889C17.987 6.34277 17.8361 6.19189 17.65 6.19189C17.4639 6.19189 17.313 6.34277 17.313 6.52889C17.313 6.71501 17.4639 6.86589 17.65 6.86589Z" fill="black"/>
<path d="M17.2721 3.53678C17.3379 3.60258 17.4242 3.63552 17.5104 3.63552C17.5965 3.63552 17.6828 3.60258 17.7486 3.53678L17.9869 3.29852L18.2251 3.53678C18.2909 3.60258 18.3772 3.63552 18.4634 3.63552C18.5496 3.63552 18.6358 3.60258 18.7016 3.53678C18.8332 3.40518 18.8332 3.19187 18.7016 3.06027L18.4634 2.82201L18.7016 2.58376C18.8332 2.45216 18.8332 2.23884 18.7016 2.10724C18.57 1.97565 18.3567 1.97565 18.2251 2.10724L17.9869 2.3455L17.7486 2.10724C17.617 1.97565 17.4037 1.97565 17.2721 2.10724C17.1405 2.23884 17.1405 2.45216 17.2721 2.58376L17.5104 2.82201L17.2721 3.06027C17.1404 3.19187 17.1404 3.40518 17.2721 3.53678Z" fill="black"/>
<path d="M19.4884 17.3266L16.2797 14.1179C16.1481 13.9863 15.9348 13.9863 15.8032 14.1179L15.7045 14.2167L13.98 12.4922C16.2854 9.4566 16.0617 5.10016 13.2928 2.3309C10.2711 -0.690865 5.35302 -0.690865 2.33126 2.3309C-0.690499 5.353 -0.690499 10.2704 2.33126 13.2925C3.84219 14.8034 5.82726 15.5589 7.81209 15.5589C9.46472 15.5589 11.1135 15.0272 12.4925 13.9797L14.217 15.7041L14.1182 15.8028C13.9866 15.9344 13.9866 16.1477 14.1182 16.2793L17.3269 19.4881C17.6247 19.7859 18.0164 19.935 18.4077 19.935C18.7989 19.935 19.1906 19.7859 19.4884 19.4881C20.0844 18.8922 20.0844 17.9226 19.4884 17.3266ZM14.6935 15.2277L13.012 13.5462C13.1055 13.4614 13.2026 13.3827 13.2928 13.2925C13.3831 13.2023 13.4617 13.1053 13.5465 13.0117L15.2279 14.6932L14.6935 15.2277ZM2.80769 12.816C0.0485338 10.0565 0.0485338 5.56699 2.80769 2.80749C4.18727 1.42791 5.99964 0.738168 7.81192 0.738168C9.6242 0.738168 11.4366 1.428 12.8161 2.80749C15.5753 5.56699 15.5753 10.0565 12.8161 12.816C10.0567 15.5749 5.56718 15.5749 2.80769 12.816ZM19.0118 19.0116C18.6788 19.3447 18.1364 19.3447 17.8034 19.0116L17.7892 18.9975L18.2249 18.5617C18.3565 18.4301 18.3565 18.2168 18.2249 18.0852C18.0933 17.9536 17.88 17.9536 17.7484 18.0852L17.3127 18.521L17.1152 18.3235L17.5509 17.8877C17.6825 17.7561 17.6825 17.5428 17.5509 17.4112C17.4193 17.2796 17.206 17.2796 17.0744 17.4112L16.6387 17.847L16.4412 17.6495L16.8769 17.2138C17.0085 17.0822 17.0085 16.8688 16.8769 16.7372C16.7454 16.6056 16.532 16.6056 16.4004 16.7372L15.9647 17.173L15.7672 16.9755L16.203 16.5398C16.3346 16.4082 16.3346 16.1948 16.203 16.0632C16.0714 15.9316 15.858 15.9316 15.7264 16.0632L15.2907 16.499L14.8329 16.0412L16.0414 14.8327L19.0118 17.8032C19.3449 18.1362 19.3449 18.6786 19.0118 19.0116Z" fill="black"/>
<path d="M12.3388 3.28437C11.1295 2.07497 9.52173 1.40881 7.81147 1.40881C6.10121 1.40881 4.49349 2.07497 3.28409 3.28437C2.09871 4.46941 1.43289 6.04521 1.40921 7.72092C1.4066 7.90686 1.5553 8.05986 1.74158 8.06255H1.74621C1.93021 8.06255 2.08059 7.91478 2.08321 7.73019C2.10427 6.23115 2.69991 4.82132 3.76061 3.76096C4.8427 2.67887 6.28117 2.08289 7.81147 2.08289C9.34177 2.08289 10.7802 2.67887 11.8623 3.76096C12.9444 4.84306 13.5404 6.28153 13.5404 7.81183C13.5404 9.34213 12.9444 10.7806 11.8623 11.8627C10.7802 12.9448 9.34177 13.5408 7.81147 13.5408C6.28117 13.5408 4.8427 12.9448 3.76061 11.8627C3.10372 11.2061 2.62948 10.4272 2.35044 9.54778C2.2945 9.37044 2.10427 9.27136 1.92751 9.32831C1.74983 9.38459 1.65177 9.57381 1.70805 9.75124C2.01539 10.7211 2.56039 11.6159 3.28409 12.3393C4.49349 13.5487 6.10121 14.2148 7.81147 14.2148C9.52173 14.2148 11.1295 13.5488 12.3388 12.3393C13.5482 11.1298 14.2144 9.52217 14.2144 7.81191C14.2144 6.10166 13.5483 4.49385 12.3388 3.28437Z" fill="black"/>
<path d="M6.85918 3.66174C6.6729 3.66174 6.52218 3.81246 6.52218 3.99874V4.81216C6.12166 4.91225 5.74195 5.11588 5.42922 5.42836C5.11674 5.74093 4.91311 6.12072 4.81302 6.52133H3.99959C3.81332 6.52133 3.6626 6.67205 3.6626 6.85832C3.6626 7.0446 3.81332 7.19532 3.99959 7.19532H4.74427C4.76795 7.76602 4.99449 8.32982 5.42922 8.76446L5.66756 9.0028L5.19096 9.47956C5.05936 9.61116 5.05936 9.82448 5.19096 9.95608C5.25676 10.0219 5.34303 10.0548 5.42922 10.0548C5.5154 10.0548 5.60167 10.0219 5.66747 9.95608L6.14407 9.47931L6.38258 9.71782L5.90581 10.1944C5.77422 10.326 5.77422 10.5393 5.90581 10.6709C5.97161 10.7367 6.05788 10.7697 6.14407 10.7697C6.23026 10.7697 6.31653 10.7367 6.38233 10.6709L6.86541 10.188C6.97468 10.2869 7.09314 10.3676 7.21825 10.4344L7.01613 11.0408C6.95724 11.2175 7.0527 11.4084 7.22903 11.467C7.26458 11.4789 7.30047 11.4844 7.33569 11.4844C7.47689 11.4844 7.60815 11.3952 7.65525 11.2541L7.86241 10.6326C7.9251 10.6393 7.98744 10.6505 8.05046 10.6505C8.10842 10.6505 8.1658 10.6396 8.22359 10.6339L8.4348 11.6901C8.46673 11.8503 8.6076 11.961 8.76489 11.961C8.78663 11.961 8.80895 11.959 8.83136 11.9544C9.01368 11.9178 9.13213 11.7405 9.09565 11.5578L8.87206 10.4399C9.02657 10.3589 9.17468 10.2616 9.30425 10.1318L10.1326 9.30348C10.2622 9.17382 10.3596 9.02571 10.4406 8.8712L11.5586 9.0948C11.581 9.09943 11.603 9.10137 11.6251 9.10137C11.7824 9.10137 11.9232 8.99084 11.9552 8.83051C11.9917 8.64786 11.8732 8.47051 11.6909 8.43395L10.6346 8.22265C10.6464 8.10209 10.646 7.98195 10.6332 7.86148L11.2549 7.65431C11.4313 7.59575 11.5267 7.40485 11.4678 7.22809C11.4089 7.05167 11.22 6.95563 11.0416 7.01519L10.435 7.21739C10.3683 7.09228 10.2876 6.97383 10.1888 6.86447L10.6717 6.38139C10.8033 6.24979 10.8033 6.03647 10.6717 5.90488C10.5401 5.77328 10.3268 5.77328 10.1952 5.90488L9.71859 6.38164L9.48008 6.14313L9.95685 5.66653C10.0884 5.53494 10.0884 5.32162 9.95685 5.19002C9.82525 5.05842 9.61193 5.05842 9.48033 5.19002L9.00357 5.66662L8.76523 5.42828C8.3305 4.99355 7.76679 4.76701 7.19609 4.74333V3.99866C7.19617 3.81246 7.04545 3.66174 6.85918 3.66174ZM9.65625 8.82697L8.82791 9.65531C8.39942 10.0838 7.70175 10.0838 7.27326 9.65531L6.38241 8.76446L8.7654 6.38147L9.65625 7.27232C10.0847 7.70081 10.0847 8.39848 9.65625 8.82697ZM5.90581 8.28794C5.24892 7.63105 5.24892 6.56219 5.90581 5.90496C6.23422 5.57656 6.66599 5.41227 7.09752 5.41227C7.52904 5.41227 7.9604 5.57647 8.28888 5.90496L5.90581 8.28794Z" fill="black"/>
</svg>
