<svg width="215" height="40" viewBox="0 0 215 40" fill="none" xmlns="http://www.w3.org/2000/svg">
<path d="M33.7701 9.14805L16.174 34.654H9.84689L30.6526 4.67622L27.5196 0.204224L0.28125 39.7964H18.6981L36.9181 13.6199L33.7701 9.14805Z" fill="#6ABA4F"/>
<path d="M41.0411 34.6536H34.7138L43.1395 22.5153L40.0675 18.1233L25.1473 39.796H43.5652L49.3746 31.4436L46.303 27.0509L41.0411 34.6536Z" fill="#6ABA4F"/>
<path d="M67.898 12.0705C61.404 12.0705 58.5755 16.4783 58.5755 21.9887V24.6244C58.5755 32.1306 62.7272 34.9741 68.6128 34.9741C71.013 34.975 73.4061 34.6915 75.7462 34.1268V30.0058C73.377 30.345 70.9886 30.5094 68.5977 30.5011C65.1306 30.5011 63.8069 29.0326 63.5335 25.3114H76.6131V22.0045C76.6126 16.1754 73.1902 12.0705 67.898 12.0705ZM67.7463 16.5745C71.0154 16.5745 71.5476 19.7684 71.6241 21.6207H63.518C63.7308 18.8739 64.5669 16.5745 67.7463 16.5745Z" fill="#1B1A1E"/>
<path d="M154.328 12.0705C147.834 12.0705 144.99 16.4783 144.99 21.9887V24.6244C144.99 32.1306 149.141 34.9741 155.027 34.9741C157.428 34.975 159.821 34.6915 162.16 34.1268V30.0058C159.792 30.345 157.403 30.5094 155.013 30.5011C151.545 30.5011 150.237 29.0326 149.948 25.3114H163.013V22.0045C163.013 16.1754 159.606 12.0705 154.328 12.0705ZM154.161 16.5745C157.431 16.5745 157.964 19.7684 158.054 21.6207H149.948C150.146 18.8739 150.982 16.5745 154.161 16.5745Z" fill="#1B1A1E"/>
<path d="M94.4071 12.3264L89.2514 19.769L84.0961 12.3264H78.9557L86.6663 23.4896L78.9557 34.622H84.1262L89.2514 27.2117L94.3612 34.622H99.5477L91.8215 23.4896L99.5477 12.3264H94.4071Z" fill="#1B1A1E"/>
<path d="M132.459 11.9751C131.243 11.9863 130.031 12.1197 128.839 12.3742V4.53247H123.987V34.6217H132.839C138.405 34.6217 141.569 30.8998 141.569 25.2142V21.3014C141.569 16.3188 138.678 11.9751 132.459 11.9751ZM136.626 24.751C136.626 28.5844 135.409 30.3581 132.064 30.3581H128.839V16.5901C129.936 16.3629 131.052 16.256 132.169 16.2708C135.21 16.2708 136.625 17.8679 136.625 21.5095V24.7508H136.626V24.751Z" fill="#1B1A1E"/>
<path d="M209.141 12.0867C206.751 11.865 204.361 12.4829 202.343 13.8428C201.275 12.6207 199.736 11.9747 198.16 12.0867C196.11 12.0285 194.101 12.6982 192.457 13.9868V12.3892H187.727V34.7494H192.761V17.772C193.904 17.0451 195.187 16.5972 196.517 16.4614C198.327 16.4614 198.905 17.6604 198.905 20.1356V34.6854H203.711V18.4589C203.731 18.1347 203.731 17.8084 203.711 17.4845C204.902 16.8358 206.217 16.4756 207.558 16.4305C209.353 16.4305 209.931 17.6285 209.931 20.1036V34.6536H214.722V18.4595C214.721 16.766 214.296 12.0867 209.141 12.0867Z" fill="#1B1A1E"/>
<path d="M174.557 12.0066C172.246 11.9962 169.943 12.2807 167.697 12.8533V16.798C170.085 16.5587 172.473 16.3191 174.526 16.3191C177.415 16.3191 178.069 17.7884 178.069 19.4019V21.382H175.18C169.629 21.382 166.405 23.3143 166.405 28.137C166.405 32.3223 168.123 34.9408 172.838 34.9408C174.766 34.9532 176.653 34.3399 178.238 33.1847V34.6537H182.8V19.1138C182.937 14.2901 179.818 12.0066 174.557 12.0066ZM171.515 28.137C171.515 25.7582 172.793 24.8163 175.058 24.8163C176.488 24.8163 177.507 24.8163 178.101 24.8163V29.6069C176.877 30.2802 175.526 30.6565 174.146 30.7086C172.047 30.8211 171.439 30.3888 171.439 28.1383H171.515V28.137H171.515Z" fill="#1B1A1E"/>
<path d="M110.163 12.0068C107.852 11.9956 105.549 12.2806 103.303 12.8536V16.7983C105.676 16.559 108.079 16.3194 110.117 16.3194C113.022 16.3194 113.66 17.7887 113.66 19.4022V21.3823H110.831C105.295 21.3823 102.056 23.3146 102.056 28.1373C102.056 32.3226 103.775 34.9411 108.49 34.9411C110.419 34.9535 112.304 34.3402 113.889 33.185V34.6539H118.543V19.114C118.542 14.2904 115.41 12.0068 110.163 12.0068ZM107.12 28.1373C107.12 25.7585 108.383 24.8166 110.665 24.8166C112.094 24.8166 113.113 24.8166 113.706 24.8166V29.6072C112.484 30.2838 111.133 30.6611 109.752 30.7089C107.637 30.8214 107.045 30.3891 107.045 28.1386H107.121V28.1373H107.12Z" fill="#1B1A1E"/>
</svg>
