<svg width="30" height="24" viewBox="0 0 30 24" fill="none" xmlns="http://www.w3.org/2000/svg">
<path d="M28.5 0.5H1.5C0.671602 0.5 0 1.17154 0 2V22C0 22.8284 0.671543 23.5 1.5 23.5H28.5C29.3284 23.5 30 22.8284 30 22V2C30 1.1716 29.3285 0.5 28.5 0.5ZM29 22C29 22.2762 28.7762 22.5 28.5 22.5H1.5C1.22385 22.5 1.00002 22.2762 1.00002 22V2C1.00002 1.72385 1.22385 1.50002 1.5 1.50002H28.5C28.7762 1.50002 29 1.72385 29 2V22Z" fill="black"/>
<path d="M27.5435 2.50217C27.4114 2.49063 27.2801 2.53206 27.1786 2.61737L15.6435 12.3073C15.2715 12.62 14.7285 12.62 14.3565 12.3073L2.82155 2.61731C2.68473 2.50247 2.497 2.4693 2.32913 2.53036C2.16126 2.59141 2.03868 2.73743 2.00762 2.91339C1.97657 3.08934 2.04173 3.26846 2.17854 3.38331L13.7135 13.0728C14.457 13.6987 15.5431 13.6987 16.2866 13.0728L27.8215 3.38337C27.9231 3.29811 27.9866 3.176 27.9982 3.04387C28.0097 2.91175 27.9683 2.78044 27.883 2.67889C27.7978 2.57723 27.6757 2.51372 27.5435 2.50217Z" fill="black"/>
<path d="M9.61664 13.0037C9.43963 12.9642 9.25517 13.0236 9.13447 13.159L2.13445 20.659C2.00777 20.7887 1.96125 20.9769 2.01293 21.1507C2.06461 21.3246 2.20634 21.4567 2.3833 21.4962C2.56031 21.5357 2.74476 21.4763 2.86547 21.341L9.86549 13.841C9.99217 13.7112 10.0387 13.523 9.98701 13.3492C9.93533 13.1755 9.79365 13.0432 9.61664 13.0037Z" fill="black"/>
<path d="M20.8655 13.159C20.7448 13.0236 20.5603 12.9642 20.3833 13.0037C20.2063 13.0432 20.0646 13.1755 20.0129 13.3492C19.9612 13.5231 20.0078 13.7112 20.1344 13.841L27.1345 21.341C27.3243 21.5354 27.6346 21.5426 27.8333 21.3573C28.032 21.1719 28.0463 20.8618 27.8655 20.6589L20.8655 13.159Z" fill="black"/>
</svg>
