<svg width="30" height="30" viewBox="0 0 30 30" fill="none" xmlns="http://www.w3.org/2000/svg">
<path d="M9.84187 20.5356C11.0774 22.2776 12.3109 23.8356 13.1284 24.8391C13.2474 24.9851 13.3589 25.1206 13.4669 25.2511H10.9999C10.7238 25.2511 10.4999 25.4749 10.4999 25.7511C10.4999 26.0272 10.7238 26.251 10.9999 26.251H18.9999C19.276 26.251 19.4999 26.0272 19.4999 25.7511C19.4999 25.4749 19.276 25.2511 18.9999 25.2511H16.5329C16.6409 25.1206 16.7524 24.9851 16.8719 24.8391C17.6889 23.8391 18.9219 22.2776 20.1579 20.5356C21.3842 18.842 22.488 17.0629 23.4609 15.2121C24.4819 13.2071 25 11.5426 25 10.2646C25.0034 7.60908 23.9496 5.06142 22.0714 3.18407C21.946 3.05399 21.7601 3.00172 21.5853 3.04737C21.4104 3.09301 21.2738 3.22942 21.2279 3.4042C21.182 3.57899 21.234 3.76491 21.3639 3.89053C23.0545 5.58062 24.0029 7.87404 23.9999 10.2646C23.9999 11.3836 23.5189 12.8955 22.57 14.7581C21.619 16.566 20.5403 18.3038 19.342 19.9581C18.123 21.6776 16.9044 23.2181 16.097 24.2081C15.8285 24.5371 15.587 24.8281 15.3809 25.0741C15.2848 25.1839 15.1459 25.2469 15 25.2469C14.854 25.2469 14.7151 25.1839 14.619 25.0741C14.413 24.8282 14.1715 24.5371 13.903 24.2081C13.0955 23.2186 11.877 21.6781 10.658 19.9581C9.45966 18.3038 8.38089 16.566 7.42997 14.7581C6.47998 12.8955 5.99998 11.3836 5.99998 10.2646C5.99969 6.64293 8.16556 3.37233 11.5 1.95904C13.7405 1.01955 16.2645 1.01955 18.5051 1.95904C18.6696 2.02877 18.8588 2.00551 19.0015 1.89787C19.1441 1.79029 19.2186 1.61474 19.1967 1.43738C19.1748 1.26001 19.0601 1.10779 18.8955 1.03806C13.8038 -1.10953 7.93517 1.27607 5.786 6.36707C5.2648 7.60023 4.9975 8.92581 5.00002 10.2646C5.00002 11.5426 5.51805 13.2071 6.53905 15.2146C7.51183 17.0646 8.61568 18.8428 9.84187 20.5356Z" fill="black"/>
<path d="M14.9996 5.75045C15.2758 5.75045 15.4996 5.52662 15.4996 5.25047C15.4996 4.97432 15.2758 4.75049 14.9996 4.75049C12.6143 4.75043 10.561 6.43548 10.0956 8.77502C9.6302 11.1146 10.8823 13.457 13.0861 14.3699C15.2898 15.2828 17.8316 14.5118 19.1569 12.5284C20.4822 10.5451 20.2218 7.90173 18.5351 6.21499C18.4096 6.08502 18.2237 6.03288 18.0489 6.07864C17.8741 6.1244 17.7376 6.26092 17.6918 6.43571C17.646 6.61055 17.6982 6.79641 17.8281 6.92198C19.1776 8.27134 19.3859 10.3859 18.3257 11.9727C17.2656 13.5594 15.2322 14.1763 13.4692 13.4461C11.7061 12.7159 10.7044 10.8419 11.0766 8.97025C11.4488 7.09858 13.0913 5.75051 14.9996 5.75045Z" fill="black"/>
<path d="M29.8118 27.5368L26.7368 22.0368C26.4587 21.5481 25.9385 21.2477 25.3763 21.2513H21.8128C21.5366 21.2513 21.3128 21.4751 21.3128 21.7512C21.3128 22.0274 21.5366 22.2512 21.8128 22.2512H25.3763C25.5764 22.2474 25.7632 22.3517 25.8648 22.5242L28.9388 28.0242C29.0225 28.1673 29.0208 28.3448 28.9343 28.4863C28.8321 28.655 28.6474 28.7561 28.4503 28.7513H1.5502C1.35321 28.756 1.16875 28.6548 1.06668 28.4863C0.980199 28.3448 0.978499 28.1673 1.06217 28.0242L4.13619 22.5242C4.23761 22.3518 4.42418 22.2474 4.62416 22.2512H8.18767C8.46382 22.2512 8.68765 22.0274 8.68765 21.7512C8.68765 21.4751 8.46382 21.2513 8.18767 21.2513H4.62422C4.06171 21.2476 3.54105 21.5479 3.26273 22.0368L0.188184 27.5368C-0.0681648 27.9896 -0.0622468 28.5451 0.203711 28.9923C0.483908 29.4686 0.997718 29.7582 1.5502 29.7514H28.4503C29.0026 29.758 29.5162 29.4685 29.7963 28.9923C30.0623 28.545 30.0682 27.9896 29.8118 27.5368Z" fill="black"/>
<path d="M24.5001 23.751H22.5001C22.4014 23.7512 22.3049 23.7803 22.2226 23.835L20.7226 24.835C20.4929 24.9883 20.4309 25.2988 20.5841 25.5285C20.7374 25.7583 21.0479 25.8203 21.2776 25.6671L22.6501 24.7511H24.5001C24.7763 24.7511 25.0001 24.5272 25.0001 24.2511C25.0001 23.9748 24.7763 23.751 24.5001 23.751Z" fill="black"/>
<path d="M21.5 27.2512C21.5 27.5274 21.7238 27.7512 22 27.7512H26C26.2762 27.7512 26.5 27.5274 26.5 27.2512C26.5 26.9751 26.2762 26.7512 26 26.7512H22C21.7238 26.7512 21.5 26.9751 21.5 27.2512Z" fill="black"/>
<path d="M9.00095 25.7513C9.22138 25.7516 9.41597 25.6074 9.48002 25.3965C9.54406 25.1855 9.46238 24.9576 9.27898 24.8353L7.77897 23.8352C7.69659 23.7805 7.59985 23.7513 7.50095 23.7512H5.50096C5.22481 23.7512 5.00098 23.9751 5.00098 24.2512C5.00098 24.5274 5.22486 24.7512 5.50096 24.7512H7.35095L8.72497 25.6672C8.80671 25.7218 8.90275 25.751 9.00095 25.7513Z" fill="black"/>
<path d="M3.99998 26.7512C3.72383 26.7512 3.5 26.9751 3.5 27.2512C3.5 27.5274 3.72383 27.7512 3.99998 27.7512H8.00002C8.27617 27.7512 8.5 27.5274 8.5 27.2512C8.5 26.9751 8.27617 26.7512 8.00002 26.7512H3.99998Z" fill="black"/>
</svg>
