<svg width="30" height="30" viewBox="0 0 30 30" fill="none" xmlns="http://www.w3.org/2000/svg">
<path d="M29.2128 23.1438L23.1407 19.0944C22.3701 18.5846 21.3372 18.7524 20.7675 19.4798L18.9988 21.754C18.7715 22.0537 18.3583 22.1406 18.0294 21.958L17.693 21.7725C16.5776 21.1646 15.1899 20.4077 12.3938 17.6106C9.59768 14.8135 8.83929 13.4247 8.23136 12.3114L8.04687 11.975C7.86169 11.6462 7.94698 11.2312 8.24682 11.0021L10.5195 9.23389C11.2466 8.66415 11.4146 7.63153 10.9054 6.86072L6.85601 0.788617C6.3342 0.00369455 5.28728 -0.231935 4.47945 0.253677L1.94032 1.77894C1.14251 2.24797 0.557184 3.00758 0.307084 3.8986C-0.607253 7.2301 0.0805938 12.9798 8.55035 21.4505C15.2879 28.1875 20.3036 29.9992 23.7511 29.9992C24.5445 30.0026 25.3349 29.8994 26.1008 29.6923C26.992 29.4425 27.7517 28.8571 28.2205 28.0591L29.7472 25.5215C30.2336 24.7135 29.998 23.6659 29.2128 23.1438ZM28.8858 25.0085L27.3625 27.5476C27.026 28.1236 26.4795 28.5472 25.8377 28.7295C22.7622 29.5739 17.389 28.8745 9.25771 20.7432C1.1264 12.6118 0.427066 7.23912 1.27145 4.16312C1.454 3.52056 1.87804 2.97343 2.45475 2.63633L4.99389 1.11306C5.3444 0.902155 5.79879 1.00439 6.02522 1.345L8.22491 4.6475L10.0712 7.41658C10.2923 7.75092 10.2196 8.19904 9.90419 8.44645L7.63104 10.2147C6.93926 10.7436 6.74171 11.7007 7.16763 12.4603L7.34813 12.7883C7.98706 13.9601 8.78141 15.4179 11.6815 18.3175C14.5816 21.217 16.0389 22.0115 17.2102 22.6503L17.5386 22.8313C18.2981 23.2572 19.2553 23.0597 19.7843 22.3679L21.5525 20.0947C21.7999 19.7795 22.2479 19.7069 22.5824 19.9278L28.6539 23.9772C28.9948 24.2034 29.097 24.658 28.8858 25.0085Z" fill="black"/>
<path d="M16.9989 5.0025C21.6905 5.00771 25.4924 8.80971 25.4977 13.5013C25.4977 13.7774 25.7215 14.0012 25.9976 14.0012C26.2737 14.0012 26.4975 13.7774 26.4975 13.5013C26.4917 8.25772 22.2425 4.00843 16.9989 4.00269C16.7228 4.00269 16.499 4.22648 16.499 4.50259C16.499 4.7787 16.7228 5.0025 16.9989 5.0025Z" fill="black"/>
<path d="M16.9989 8.00225C20.0346 8.00583 22.4946 10.4658 22.4981 13.5015C22.4981 13.7776 22.722 14.0014 22.998 14.0014C23.2742 14.0014 23.4979 13.7776 23.4979 13.5015C23.4938 9.91383 20.5865 7.00654 16.9989 7.00244C16.7228 7.00244 16.499 7.22624 16.499 7.50235C16.499 7.77846 16.7228 8.00225 16.9989 8.00225Z" fill="black"/>
<path d="M16.9989 11.0018C18.3787 11.0034 19.4969 12.1216 19.4986 13.5014C19.4986 13.7775 19.7224 14.0013 19.9985 14.0013C20.2745 14.0013 20.4984 13.7775 20.4984 13.5014C20.4962 11.5696 18.9307 10.0041 16.9989 10.002C16.7228 10.002 16.499 10.2257 16.499 10.5019C16.499 10.778 16.7228 11.0018 16.9989 11.0018Z" fill="black"/>
</svg>
