<svg width="20" height="20" viewBox="0 0 20 20" fill="none" xmlns="http://www.w3.org/2000/svg">
<path fill-rule="evenodd" clip-rule="evenodd" d="M10.0012 12.6609L14.9331 17.7105C15.4278 18.2209 15.7498 18.2262 16.2536 17.7105L17.2431 16.6971C17.7278 16.2009 17.7607 15.8752 17.2431 15.3452L12.0217 9.99997L17.2436 4.65474C17.7326 4.15236 17.7421 3.81331 17.2436 3.30236L16.254 2.2895C15.7407 1.76378 15.4236 1.78807 14.9336 2.2895L10.0012 7.33902L5.06928 2.28997C4.57928 1.78855 4.26213 1.76426 3.7488 2.28997L2.75928 3.30283C2.26023 3.81378 2.26928 4.15283 2.75928 4.65521L7.9807 9.99997L2.75928 15.3452C2.24166 15.8752 2.26928 16.2009 2.75928 16.6971L3.74832 17.7105C4.24785 18.2262 4.56975 18.2209 5.0688 17.7105L10.0012 12.6609Z" fill="white"/>
</svg>
