<svg width="159" height="30" viewBox="0 0 159 30" fill="none" xmlns="http://www.w3.org/2000/svg">
<path d="M24.9742 6.86082L11.9612 25.9903H7.28213L22.6687 3.50695L20.3517 0.152954L0.208008 29.8471H13.8279L27.3022 10.2147L24.9742 6.86082Z" fill="#6ABA4F"/>
<path d="M30.3511 25.9898H25.6719L31.903 16.886L29.6311 13.592L18.5972 29.8466H32.2178L36.5141 23.5823L34.2425 20.2878L30.3511 25.9898Z" fill="#6ABA4F"/>
<path d="M50.2132 9.05237C45.4106 9.05237 43.3188 12.3582 43.3188 16.491V18.4678C43.3188 24.0974 46.3892 26.2301 50.7418 26.2301C52.5168 26.2308 54.2866 26.0181 56.0172 25.5946V22.5038C54.2651 22.7582 52.4988 22.8816 50.7306 22.8753C48.1666 22.8753 47.1877 21.774 46.9855 18.983H56.6583V16.5029C56.6579 12.131 54.127 9.05237 50.2132 9.05237ZM50.101 12.4304C52.5186 12.4304 52.9122 14.8258 52.9688 16.215H46.974C47.1313 14.1549 47.7497 12.4304 50.101 12.4304Z" fill="#1B1A1E"/>
<path d="M114.131 9.05237C109.328 9.05237 107.225 12.3582 107.225 16.491V18.4678C107.225 24.0974 110.295 26.2301 114.648 26.2301C116.423 26.2308 118.193 26.0181 119.923 25.5946V22.5038C118.171 22.7582 116.405 22.8816 114.637 22.8753C112.072 22.8753 111.105 21.774 110.892 18.983H120.553V16.5029C120.553 12.131 118.034 9.05237 114.131 9.05237ZM114.007 12.4304C116.425 12.4304 116.819 14.8258 116.887 16.215H110.892C111.038 14.1549 111.657 12.4304 114.007 12.4304Z" fill="#1B1A1E"/>
<path d="M69.8174 9.24426L66.0046 14.8263L62.1921 9.24426H58.3906L64.0928 17.6167L58.3906 25.966H62.2144L66.0046 20.4083L69.7835 25.966H73.6191L67.9053 17.6167L73.6191 9.24426H69.8174Z" fill="#1B1A1E"/>
<path d="M97.958 8.98117C97.0589 8.98957 96.1623 9.08957 95.281 9.2805V3.39917H91.6929V25.9661H98.2391C102.355 25.9661 104.695 23.1746 104.695 18.9105V15.9758C104.695 12.2389 102.558 8.98117 97.958 8.98117ZM101.04 18.563C101.04 21.4381 100.14 22.7684 97.6657 22.7684H95.281V12.4424C96.0926 12.272 96.9176 12.1918 97.7436 12.2029C99.9928 12.2029 101.039 13.4008 101.039 16.132V18.5629H101.04V18.563Z" fill="#1B1A1E"/>
<path d="M154.667 9.06496C152.899 8.89869 151.132 9.36216 149.639 10.382C148.85 9.46549 147.712 8.98096 146.546 9.06496C145.03 9.02136 143.544 9.52362 142.328 10.49V9.29189H138.831V26.062H142.554V13.329C143.398 12.7838 144.347 12.4479 145.331 12.346C146.67 12.346 147.097 13.2452 147.097 15.1016V26.014H150.651V13.8442C150.666 13.601 150.666 13.3563 150.651 13.1134C151.532 12.6268 152.504 12.3567 153.496 12.3228C154.823 12.3228 155.251 13.2214 155.251 15.0776V25.9902H158.794V13.8446C158.794 12.5744 158.479 9.06496 154.667 9.06496Z" fill="#1B1A1E"/>
<path d="M129.091 9.00448C127.382 8.99674 125.679 9.21008 124.018 9.63954V12.5981C125.784 12.4186 127.55 12.2389 129.068 12.2389C131.204 12.2389 131.688 13.3409 131.688 14.551V16.0361H129.552C125.447 16.0361 123.062 17.4853 123.062 21.1023C123.062 24.2413 124.333 26.2051 127.82 26.2051C129.246 26.2145 130.641 25.7545 131.813 24.8881V25.9898H135.187V14.3349C135.288 10.7171 132.982 9.00448 129.091 9.00448ZM126.841 21.1023C126.841 19.3182 127.786 18.6118 129.461 18.6118C130.519 18.6118 131.272 18.6118 131.712 18.6118V22.2047C130.807 22.7097 129.808 22.9919 128.787 23.031C127.235 23.1154 126.785 22.7911 126.785 21.1033H126.842V21.1023H126.841Z" fill="#1B1A1E"/>
<path d="M81.4697 9.00475C79.7604 8.99635 78.0572 9.21009 76.3964 9.63982V12.5984C78.151 12.4189 79.9283 12.2392 81.4353 12.2392C83.5834 12.2392 84.0554 13.3412 84.0554 14.5513V16.0364H81.9633C77.8694 16.0364 75.4741 17.4855 75.4741 21.1026C75.4741 24.2415 76.7449 26.2054 80.2319 26.2054C81.6586 26.2147 83.0528 25.7547 84.2251 24.8883V25.9901H87.6667V14.3352C87.6659 10.7174 85.3495 9.00475 81.4697 9.00475ZM79.2193 21.1026C79.2193 19.3185 80.1534 18.6121 81.8404 18.6121C82.8977 18.6121 83.6511 18.6121 84.0897 18.6121V22.205C83.1857 22.7125 82.1864 22.9954 81.1651 23.0313C79.6016 23.1157 79.1632 22.7914 79.1632 21.1035H79.2194V21.1026H79.2193Z" fill="#1B1A1E"/>
</svg>
