<svg width="20" height="20" viewBox="0 0 20 20" fill="none" xmlns="http://www.w3.org/2000/svg">
<path d="M8.75 18.7378L8.75 12.4938C8.41146 12.4938 8.11849 12.3703 7.87109 12.1231C7.6237 11.876 7.5 11.5833 7.5 11.2451L7.5 8.74751C7.5 8.39629 7.6237 8.10035 7.87109 7.8597C8.11849 7.61905 8.41146 7.49873 8.75 7.49873L8.75 1.25482C8.75 0.903603 8.8737 0.607668 9.12109 0.367018C9.36849 0.126367 9.66471 0.00604203 10.0098 0.00604204C10.3548 0.00604206 10.6478 0.126367 10.8887 0.367018C11.1296 0.607668 11.25 0.903603 11.25 1.25482L11.25 7.49873C11.6016 7.49873 11.8978 7.61905 12.1387 7.8597C12.3796 8.10035 12.5 8.39629 12.5 8.74751L12.5 11.2451C12.5 11.5963 12.3796 11.8922 12.1387 12.1329C11.8978 12.3735 11.6016 12.4938 11.25 12.4938L11.25 18.7378C11.25 19.089 11.1296 19.3849 10.8887 19.6256C10.6478 19.8662 10.3548 19.9865 10.0098 19.9865C9.66471 19.9865 9.36849 19.8662 9.12109 19.6256C8.8737 19.3849 8.75 19.089 8.75 18.7378ZM11.25 11.2451L11.25 8.74751L8.75 8.74751L8.75 11.2451L11.25 11.2451ZM16.25 18.7378L16.25 17.489C15.9115 17.489 15.6185 17.3654 15.3711 17.1182C15.1237 16.8711 15 16.5784 15 16.2402L15 13.7426C15 13.3914 15.1237 13.0955 15.3711 12.8548C15.6185 12.6142 15.9115 12.4938 16.25 12.4938L16.25 1.25482C16.25 0.903603 16.3737 0.607668 16.6211 0.367018C16.8685 0.126368 17.1647 0.00604236 17.5098 0.00604237C17.8548 0.00604239 18.1478 0.126368 18.3887 0.367018C18.6296 0.607668 18.75 0.903603 18.75 1.25482L18.75 12.4938C19.1016 12.4938 19.3978 12.6142 19.6387 12.8548C19.8796 13.0955 20 13.3914 20 13.7426L20 16.2402C20 16.5914 19.8796 16.8873 19.6387 17.128C19.3978 17.3686 19.1016 17.489 18.75 17.489L18.75 18.7378C18.75 19.089 18.6296 19.3849 18.3887 19.6256C18.1478 19.8662 17.8548 19.9865 17.5098 19.9865C17.1647 19.9865 16.8685 19.8662 16.6211 19.6256C16.3737 19.3849 16.25 19.089 16.25 18.7378ZM18.75 16.2402L18.75 13.7426L16.25 13.7426L16.25 16.2402L18.75 16.2402ZM3.75 1.25482L3.75 2.5036C4.10156 2.5036 4.39779 2.62393 4.63867 2.86458C4.87956 3.10523 5 3.40116 5 3.75238L5 6.24994C5 6.58816 4.87956 6.88084 4.63867 7.12799C4.39779 7.37515 4.10156 7.49873 3.75 7.49873L3.75 18.7378C3.75 19.089 3.62956 19.3849 3.38867 19.6256C3.14779 19.8662 2.85482 19.9865 2.50976 19.9865C2.16471 19.9865 1.86849 19.863 1.62109 19.6158C1.3737 19.3686 1.25 19.076 1.25 18.7378L1.25 7.49873C0.898437 7.49873 0.602213 7.37515 0.361328 7.12799C0.120443 6.88084 -2.87713e-07 6.58816 -2.7293e-07 6.24994L-1.63758e-07 3.75238C-1.48406e-07 3.40116 0.123697 3.10523 0.371094 2.86458C0.61849 2.62393 0.911459 2.5036 1.25 2.5036L1.25 1.25482C1.25 0.903603 1.3737 0.607668 1.62109 0.367017C1.86849 0.126367 2.16471 0.0060417 2.50977 0.00604172C2.85482 0.00604173 3.14779 0.126367 3.38867 0.367017C3.62956 0.607668 3.75 0.903603 3.75 1.25482ZM1.25 3.75238L1.25 6.24994L3.75 6.24994L3.75 3.75238L1.25 3.75238Z" fill="black"/>
</svg>
