<svg width="20" height="20" viewBox="0 0 20 20" fill="none" xmlns="http://www.w3.org/2000/svg">
<path d="M9.99199 1.66626C5.39199 1.66626 1.66699 5.39959 1.66699 9.99959C1.66699 14.5996 5.39199 18.3329 9.99199 18.3329C14.6003 18.3329 18.3337 14.5996 18.3337 9.99959C18.3337 5.39959 14.6003 1.66626 9.99199 1.66626ZM10.0003 16.6663C6.31699 16.6663 3.33366 13.6829 3.33366 9.99959C3.33366 6.31626 6.31699 3.33293 10.0003 3.33293C13.6837 3.33293 16.667 6.31626 16.667 9.99959C16.667 13.6829 13.6837 16.6663 10.0003 16.6663Z" fill="#BE111F"/>
<path d="M10.417 5.83374H9.16699V10.8337L13.542 13.4587L14.167 12.4337L10.417 10.2087V5.83374Z" fill="#BE111F"/>
</svg>
