<svg width="195" height="36" viewBox="0 0 195 36" fill="none" xmlns="http://www.w3.org/2000/svg">
<path d="M30.6285 8.23255L14.6692 31.1879H8.93069L27.801 4.20791L24.9594 0.183105L0.254883 35.8161H16.9586L33.4837 12.2572L30.6285 8.23255Z" fill="#6ABA4F"/>
<path d="M37.2234 31.1875H31.4847L39.1265 20.263L36.3403 16.3102L22.8081 35.8156H39.5127L44.7817 28.2985L41.9958 24.3451L37.2234 31.1875Z" fill="#6ABA4F"/>
<path d="M61.5818 10.8629C55.6919 10.8629 53.1265 14.8299 53.1265 19.7892V22.1614C53.1265 28.9169 56.892 31.4761 62.23 31.4761C64.407 31.4769 66.5775 31.2217 68.6999 30.7136V27.0046C66.5511 27.3099 64.3849 27.4579 62.2164 27.4504C59.0718 27.4504 57.8713 26.1288 57.6233 22.7796H69.4862V19.8035C69.4857 14.5573 66.3817 10.8629 61.5818 10.8629ZM61.4442 14.9165C64.4091 14.9165 64.8919 17.791 64.9613 19.458H57.6092C57.8022 16.9859 58.5605 14.9165 61.4442 14.9165Z" fill="#1B1A1E"/>
<path d="M139.972 10.8629C134.082 10.8629 131.502 14.8299 131.502 19.7892V22.1614C131.502 28.9169 135.267 31.4761 140.606 31.4761C142.783 31.4769 144.954 31.2217 147.075 30.7136V27.0046C144.927 27.3099 142.761 27.4579 140.593 27.4504C137.447 27.4504 136.261 26.1288 135.999 22.7796H147.849V19.8035C147.849 14.5573 144.758 10.8629 139.972 10.8629ZM139.82 14.9165C142.786 14.9165 143.269 17.791 143.351 19.458H135.999C136.179 16.9859 136.937 14.9165 139.82 14.9165Z" fill="#1B1A1E"/>
<path d="M85.6249 11.0928L80.9487 17.7912L76.273 11.0928H71.6108L78.6041 21.1397L71.6108 31.1589H76.3004L80.9487 24.4896L85.5833 31.1589H90.2872L83.2798 21.1397L90.2872 11.0928H85.6249Z" fill="#1B1A1E"/>
<path d="M120.137 10.7769C119.034 10.787 117.934 10.907 116.854 11.1361V4.07849H112.453V31.1588H120.481C125.53 31.1588 128.399 27.809 128.399 22.6921V19.1705C128.399 14.6862 125.778 10.7769 120.137 10.7769ZM123.916 22.2751C123.916 25.7252 122.813 27.3215 119.778 27.3215H116.854V14.9303C117.849 14.7259 118.861 14.6297 119.874 14.643C122.632 14.643 123.915 16.0804 123.915 19.3579V22.275H123.916V22.2751Z" fill="#1B1A1E"/>
<path d="M189.686 10.8774C187.518 10.6779 185.35 11.2341 183.52 12.4579C182.552 11.3581 181.156 10.7766 179.727 10.8774C177.867 10.8251 176.045 11.4278 174.554 12.5875V11.1497H170.264V31.2739H174.83V15.9942C175.866 15.34 177.03 14.9369 178.236 14.8147C179.878 14.8147 180.402 15.8937 180.402 18.1214V31.2163H184.761V16.6125C184.779 16.3206 184.779 16.027 184.761 15.7355C185.841 15.1517 187.034 14.8275 188.251 14.7869C189.878 14.7869 190.403 15.8651 190.403 18.0926V31.1877H194.748V16.6129C194.747 15.0888 194.361 10.8774 189.686 10.8774Z" fill="#1B1A1E"/>
<path d="M158.319 10.8051C156.223 10.7958 154.134 11.0518 152.097 11.5672V15.1174C154.263 14.9021 156.428 14.6864 158.291 14.6864C160.911 14.6864 161.504 16.0088 161.504 17.461V19.243H158.884C153.849 19.243 150.925 20.9821 150.925 25.3226C150.925 29.0893 152.484 31.4459 156.76 31.4459C158.509 31.4571 160.22 30.9051 161.657 29.8654V31.1875H165.795V17.2016C165.919 12.8603 163.091 10.8051 158.319 10.8051ZM155.56 25.3226C155.56 23.1816 156.719 22.3339 158.773 22.3339C160.07 22.3339 160.994 22.3339 161.533 22.3339V26.6454C160.423 27.2514 159.198 27.5901 157.946 27.637C156.043 27.7382 155.491 27.3491 155.491 25.3237H155.56V25.3226H155.56Z" fill="#1B1A1E"/>
<path d="M99.9151 10.8053C97.8187 10.7952 95.7299 11.0517 93.6932 11.5674V15.1176C95.8449 14.9022 98.0246 14.6866 99.8728 14.6866C102.507 14.6866 103.086 16.009 103.086 17.4611V19.2432H100.52C95.4996 19.2432 92.562 20.9822 92.562 25.3227C92.562 29.0894 94.1205 31.4461 98.397 31.4461C100.147 31.4573 101.857 30.9053 103.294 29.8656V31.1877H107.515V17.2018C107.514 12.8605 104.673 10.8053 99.9151 10.8053ZM97.1551 25.3227C97.1551 23.1818 98.3007 22.3341 100.37 22.3341C101.666 22.3341 102.59 22.3341 103.128 22.3341V26.6456C102.02 27.2545 100.794 27.5941 99.5415 27.6371C97.624 27.7384 97.0863 27.3493 97.0863 25.3238H97.1553V25.3227H97.1551Z" fill="#1B1A1E"/>
</svg>
